<?xml version="1.0" encoding="UTF-8" standalone="no"?>
<!DOCTYPE svg PUBLIC "-//W3C//DTD SVG 1.1//EN"
 "http://www.w3.org/Graphics/SVG/1.1/DTD/svg11.dtd">
<!-- Generated by graphviz version 2.43.0 (0)
 -->
<!-- Title: pipeline&#45;python.fiftyone_pipeline_engines.fiftyone_pipeline_engines.aspectdata_dictionary.AspectDataDictionary Pages: 1 -->
<svg width="560pt" height="61pt"
 viewBox="0.00 0.00 560.00 61.00" xmlns="http://www.w3.org/2000/svg" xmlns:xlink="http://www.w3.org/1999/xlink">
<g id="graph0" class="graph" transform="scale(1 1) rotate(0) translate(4 57)">
<title>pipeline&#45;python.fiftyone_pipeline_engines.fiftyone_pipeline_engines.aspectdata_dictionary.AspectDataDictionary</title>
<!-- Node3 -->
<g id="node1" class="node">
<title>Node3</title>
<g id="a_node1"><a xlink:title="AspectDataDictionary class extension that stores content as dictionary.">
<polygon fill="#bfbfbf" stroke="black" points="373,-0.5 373,-52.5 552,-52.5 552,-0.5 373,-0.5"/>
<text text-anchor="start" x="381" y="-40.5" font-family="Helvetica,sans-Serif" font-size="10.00">pipeline&#45;python.fiftyone</text>
<text text-anchor="start" x="381" y="-29.5" font-family="Helvetica,sans-Serif" font-size="10.00">_pipeline_engines.fiftyone</text>
<text text-anchor="start" x="381" y="-18.5" font-family="Helvetica,sans-Serif" font-size="10.00">_pipeline_engines.aspectdata</text>
<text text-anchor="middle" x="462.5" y="-7.5" font-family="Helvetica,sans-Serif" font-size="10.00">_dictionary.AspectDataDictionary</text>
</a>
</g>
</g>
<!-- Node4 -->
<g id="node2" class="node">
<title>Node4</title>
<g id="a_node2"><a xlink:href="classpipeline-python_1_1fiftyone__pipeline__engines_1_1fiftyone__pipeline__engines_1_1aspectdata_1_1_aspect_data.html" target="_top" xlink:title="AspectData extends elementData by adding the option of a missing property service It also allows prop...">
<polygon fill="none" stroke="black" points="116,-6 116,-47 337,-47 337,-6 116,-6"/>
<text text-anchor="start" x="124" y="-35" font-family="Helvetica,sans-Serif" font-size="10.00">pipeline&#45;python.fiftyone</text>
<text text-anchor="start" x="124" y="-24" font-family="Helvetica,sans-Serif" font-size="10.00">_pipeline_engines.fiftyone</text>
<text text-anchor="middle" x="226.5" y="-13" font-family="Helvetica,sans-Serif" font-size="10.00">_pipeline_engines.aspectdata.AspectData</text>
</a>
</g>
</g>
<!-- Node4&#45;&gt;Node3 -->
<g id="edge1" class="edge">
<title>Node4&#45;&gt;Node3</title>
<path fill="none" stroke="midnightblue" d="M347.34,-26.5C355.88,-26.5 364.41,-26.5 372.73,-26.5"/>
<polygon fill="midnightblue" stroke="midnightblue" points="347.31,-23 337.31,-26.5 347.31,-30 347.31,-23"/>
</g>
<!-- Node5 -->
<g id="node3" class="node">
<title>Node5</title>
<g id="a_node3"><a xlink:title=" ">
<polygon fill="none" stroke="#bfbfbf" points="0,-17 0,-36 80,-36 80,-17 0,-17"/>
<text text-anchor="middle" x="40" y="-24" font-family="Helvetica,sans-Serif" font-size="10.00">ElementData</text>
</a>
</g>
</g>
<!-- Node5&#45;&gt;Node4 -->
<g id="edge2" class="edge">
<title>Node5&#45;&gt;Node4</title>
<path fill="none" stroke="midnightblue" d="M90.37,-26.5C98.43,-26.5 107.05,-26.5 115.89,-26.5"/>
<polygon fill="midnightblue" stroke="midnightblue" points="90.13,-23 80.13,-26.5 90.13,-30 90.13,-23"/>
</g>
</g>
</svg>
