<?xml version="1.0" encoding="UTF-8" standalone="no"?>
<!DOCTYPE svg PUBLIC "-//W3C//DTD SVG 1.1//EN"
 "http://www.w3.org/Graphics/SVG/1.1/DTD/svg11.dtd">
<!-- Generated by graphviz version 2.43.0 (0)
 -->
<!-- Title: pipeline&#45;python.fiftyone_pipeline_core.fiftyone_pipeline_core.elementdata_dictionary.ElementDataDictionary Pages: 1 -->
<svg width="532pt" height="61pt"
 viewBox="0.00 0.00 532.00 61.00" xmlns="http://www.w3.org/2000/svg" xmlns:xlink="http://www.w3.org/1999/xlink">
<g id="graph0" class="graph" transform="scale(1 1) rotate(0) translate(4 57)">
<title>pipeline&#45;python.fiftyone_pipeline_core.fiftyone_pipeline_core.elementdata_dictionary.ElementDataDictionary</title>
<!-- Node3 -->
<g id="node1" class="node">
<title>Node3</title>
<g id="a_node1"><a xlink:title="An extension of ElementData with dictionary object storage / lookup.">
<polygon fill="#bfbfbf" stroke="black" points="338,-0.5 338,-52.5 524,-52.5 524,-0.5 338,-0.5"/>
<text text-anchor="start" x="346" y="-40.5" font-family="Helvetica,sans-Serif" font-size="10.00">pipeline&#45;python.fiftyone</text>
<text text-anchor="start" x="346" y="-29.5" font-family="Helvetica,sans-Serif" font-size="10.00">_pipeline_core.fiftyone</text>
<text text-anchor="start" x="346" y="-18.5" font-family="Helvetica,sans-Serif" font-size="10.00">_pipeline_core.elementdata</text>
<text text-anchor="middle" x="431" y="-7.5" font-family="Helvetica,sans-Serif" font-size="10.00">_dictionary.ElementDataDictionary</text>
</a>
</g>
</g>
<!-- Node4 -->
<g id="node2" class="node">
<title>Node4</title>
<g id="a_node2"><a xlink:href="classpipeline-python_1_1fiftyone__pipeline__core_1_1fiftyone__pipeline__core_1_1elementdata_1_1_element_data.html" target="_top" xlink:title="Core ElementData class Stores information created by a FlowElement based on FlowData.">
<polygon fill="none" stroke="black" points="83,-6 83,-47 302,-47 302,-6 83,-6"/>
<text text-anchor="start" x="91" y="-35" font-family="Helvetica,sans-Serif" font-size="10.00">pipeline&#45;python.fiftyone</text>
<text text-anchor="start" x="91" y="-24" font-family="Helvetica,sans-Serif" font-size="10.00">_pipeline_core.fiftyone</text>
<text text-anchor="middle" x="192.5" y="-13" font-family="Helvetica,sans-Serif" font-size="10.00">_pipeline_core.elementdata.ElementData</text>
</a>
</g>
</g>
<!-- Node4&#45;&gt;Node3 -->
<g id="edge1" class="edge">
<title>Node4&#45;&gt;Node3</title>
<path fill="none" stroke="midnightblue" d="M312.12,-26.5C320.7,-26.5 329.28,-26.5 337.67,-26.5"/>
<polygon fill="midnightblue" stroke="midnightblue" points="312.06,-23 302.06,-26.5 312.06,-30 312.06,-23"/>
</g>
<!-- Node5 -->
<g id="node3" class="node">
<title>Node5</title>
<g id="a_node3"><a xlink:title=" ">
<polygon fill="none" stroke="#bfbfbf" points="0,-17 0,-36 47,-36 47,-17 0,-17"/>
<text text-anchor="middle" x="23.5" y="-24" font-family="Helvetica,sans-Serif" font-size="10.00">object</text>
</a>
</g>
</g>
<!-- Node5&#45;&gt;Node4 -->
<g id="edge2" class="edge">
<title>Node5&#45;&gt;Node4</title>
<path fill="none" stroke="midnightblue" d="M57.07,-26.5C64.91,-26.5 73.73,-26.5 83,-26.5"/>
<polygon fill="midnightblue" stroke="midnightblue" points="57.02,-23 47.02,-26.5 57.02,-30 57.02,-23"/>
</g>
</g>
</svg>
