<?xml version="1.0" encoding="UTF-8" standalone="no"?>
<!DOCTYPE svg PUBLIC "-//W3C//DTD SVG 1.1//EN"
 "http://www.w3.org/Graphics/SVG/1.1/DTD/svg11.dtd">
<!-- Generated by graphviz version 2.43.0 (0)
 -->
<!-- Title: fiftyone_pipeline_engines.aspectdata_dictionary.AspectDataDictionary Pages: 1 -->
<svg width="261pt" height="296pt"
 viewBox="0.00 0.00 261.00 296.00" xmlns="http://www.w3.org/2000/svg" xmlns:xlink="http://www.w3.org/1999/xlink">
<g id="graph0" class="graph" transform="scale(1 1) rotate(0) translate(4 292)">
<title>fiftyone_pipeline_engines.aspectdata_dictionary.AspectDataDictionary</title>
<!-- Node0 -->
<g id="node1" class="node">
<title>Node0</title>
<g id="a_node1"><a xlink:title="AspectDataDictionary class extension that stores content as dictionary.">
<polygon fill="#bfbfbf" stroke="black" points="27.5,-67.5 27.5,-97.5 225.5,-97.5 225.5,-67.5 27.5,-67.5"/>
<text text-anchor="start" x="35.5" y="-85.5" font-family="Helvetica,sans-Serif" font-size="10.00">fiftyone_pipeline_engines.aspectdata</text>
<text text-anchor="middle" x="126.5" y="-74.5" font-family="Helvetica,sans-Serif" font-size="10.00">_dictionary.AspectDataDictionary</text>
</a>
</g>
</g>
<!-- Node4 -->
<g id="node5" class="node">
<title>Node4</title>
<g id="a_node5"><a xlink:href="classfiftyone__pipeline__cloudrequestengine_1_1clouddata_1_1_cloud_data.html" target="_top" xlink:title="Extention of AspectData made for retrieving cloud engine results.">
<polygon fill="none" stroke="black" points="0,-0.5 0,-30.5 253,-30.5 253,-0.5 0,-0.5"/>
<text text-anchor="start" x="8" y="-18.5" font-family="Helvetica,sans-Serif" font-size="10.00">fiftyone_pipeline_cloudrequestengine.clouddata.</text>
<text text-anchor="middle" x="126.5" y="-7.5" font-family="Helvetica,sans-Serif" font-size="10.00">CloudData</text>
</a>
</g>
</g>
<!-- Node0&#45;&gt;Node4 -->
<g id="edge4" class="edge">
<title>Node0&#45;&gt;Node4</title>
<path fill="none" stroke="midnightblue" d="M126.5,-57.11C126.5,-48.15 126.5,-38.32 126.5,-30.58"/>
<polygon fill="midnightblue" stroke="midnightblue" points="123,-57.4 126.5,-67.4 130,-57.4 123,-57.4"/>
</g>
<!-- Node1 -->
<g id="node2" class="node">
<title>Node1</title>
<g id="a_node2"><a xlink:href="classfiftyone__pipeline__engines_1_1aspectdata_1_1_aspect_data.html" target="_top" xlink:title="AspectData extends elementData by adding the option of a missing property service It also allows prop...">
<polygon fill="none" stroke="black" points="26,-134.5 26,-164.5 227,-164.5 227,-134.5 26,-134.5"/>
<text text-anchor="start" x="34" y="-152.5" font-family="Helvetica,sans-Serif" font-size="10.00">fiftyone_pipeline_engines.aspectdata.</text>
<text text-anchor="middle" x="126.5" y="-141.5" font-family="Helvetica,sans-Serif" font-size="10.00">AspectData</text>
</a>
</g>
</g>
<!-- Node1&#45;&gt;Node0 -->
<g id="edge1" class="edge">
<title>Node1&#45;&gt;Node0</title>
<path fill="none" stroke="midnightblue" d="M126.5,-124.11C126.5,-115.15 126.5,-105.32 126.5,-97.58"/>
<polygon fill="midnightblue" stroke="midnightblue" points="123,-124.4 126.5,-134.4 130,-124.4 123,-124.4"/>
</g>
<!-- Node2 -->
<g id="node3" class="node">
<title>Node2</title>
<g id="a_node3"><a xlink:href="classfiftyone__pipeline__core_1_1elementdata_1_1_element_data.html" target="_top" xlink:title="Core ElementData class Stores information created by a FlowElement based on FlowData.">
<polygon fill="none" stroke="black" points="30.5,-201.5 30.5,-231.5 222.5,-231.5 222.5,-201.5 30.5,-201.5"/>
<text text-anchor="start" x="38.5" y="-219.5" font-family="Helvetica,sans-Serif" font-size="10.00">fiftyone_pipeline_core.elementdata.</text>
<text text-anchor="middle" x="126.5" y="-208.5" font-family="Helvetica,sans-Serif" font-size="10.00">ElementData</text>
</a>
</g>
</g>
<!-- Node2&#45;&gt;Node1 -->
<g id="edge2" class="edge">
<title>Node2&#45;&gt;Node1</title>
<path fill="none" stroke="midnightblue" d="M126.5,-191.11C126.5,-182.15 126.5,-172.32 126.5,-164.58"/>
<polygon fill="midnightblue" stroke="midnightblue" points="123,-191.4 126.5,-201.4 130,-191.4 123,-191.4"/>
</g>
<!-- Node3 -->
<g id="node4" class="node">
<title>Node3</title>
<g id="a_node4"><a xlink:title=" ">
<polygon fill="none" stroke="#bfbfbf" points="103,-268.5 103,-287.5 150,-287.5 150,-268.5 103,-268.5"/>
<text text-anchor="middle" x="126.5" y="-275.5" font-family="Helvetica,sans-Serif" font-size="10.00">object</text>
</a>
</g>
</g>
<!-- Node3&#45;&gt;Node2 -->
<g id="edge3" class="edge">
<title>Node3&#45;&gt;Node2</title>
<path fill="none" stroke="midnightblue" d="M126.5,-258.23C126.5,-249.59 126.5,-239.5 126.5,-231.52"/>
<polygon fill="midnightblue" stroke="midnightblue" points="123,-258.48 126.5,-268.48 130,-258.48 123,-258.48"/>
</g>
</g>
</svg>
