<?xml version="1.0" encoding="UTF-8" standalone="no"?>
<!DOCTYPE svg PUBLIC "-//W3C//DTD SVG 1.1//EN"
 "http://www.w3.org/Graphics/SVG/1.1/DTD/svg11.dtd">
<!-- Generated by graphviz version 2.43.0 (0)
 -->
<!-- Title: fiftyone_pipeline_cloudrequestengine.cloudrequestengine.CloudRequestEngine Pages: 1 -->
<svg width="309pt" height="229pt"
 viewBox="0.00 0.00 309.00 229.00" xmlns="http://www.w3.org/2000/svg" xmlns:xlink="http://www.w3.org/1999/xlink">
<g id="graph0" class="graph" transform="scale(1 1) rotate(0) translate(4 225)">
<title>fiftyone_pipeline_cloudrequestengine.cloudrequestengine.CloudRequestEngine</title>
<!-- Node0 -->
<g id="node1" class="node">
<title>Node0</title>
<g id="a_node1"><a xlink:title=" ">
<polygon fill="#bfbfbf" stroke="black" points="0,-0.5 0,-30.5 301,-30.5 301,-0.5 0,-0.5"/>
<text text-anchor="start" x="8" y="-18.5" font-family="Helvetica,sans-Serif" font-size="10.00">fiftyone_pipeline_cloudrequestengine.cloudrequestengine.</text>
<text text-anchor="middle" x="150.5" y="-7.5" font-family="Helvetica,sans-Serif" font-size="10.00">CloudRequestEngine</text>
</a>
</g>
</g>
<!-- Node1 -->
<g id="node2" class="node">
<title>Node1</title>
<g id="a_node2"><a xlink:href="classfiftyone__pipeline__engines_1_1engine_1_1_engine.html" target="_top" xlink:title="An engine is an extension of the FlowElement class that adds extra functionality.">
<polygon fill="none" stroke="black" points="60.5,-67.5 60.5,-97.5 240.5,-97.5 240.5,-67.5 60.5,-67.5"/>
<text text-anchor="start" x="68.5" y="-85.5" font-family="Helvetica,sans-Serif" font-size="10.00">fiftyone_pipeline_engines.engine.</text>
<text text-anchor="middle" x="150.5" y="-74.5" font-family="Helvetica,sans-Serif" font-size="10.00">Engine</text>
</a>
</g>
</g>
<!-- Node1&#45;&gt;Node0 -->
<g id="edge1" class="edge">
<title>Node1&#45;&gt;Node0</title>
<path fill="none" stroke="midnightblue" d="M150.5,-57.11C150.5,-48.15 150.5,-38.32 150.5,-30.58"/>
<polygon fill="midnightblue" stroke="midnightblue" points="147,-57.4 150.5,-67.4 154,-57.4 147,-57.4"/>
</g>
<!-- Node2 -->
<g id="node3" class="node">
<title>Node2</title>
<g id="a_node3"><a xlink:href="classfiftyone__pipeline__core_1_1flowelement_1_1_flow_element.html" target="_top" xlink:title="A FlowElement is placed inside a Pipeline It receives Evidence via a FlowData object It uses this to ...">
<polygon fill="none" stroke="black" points="55,-134.5 55,-164.5 246,-164.5 246,-134.5 55,-134.5"/>
<text text-anchor="start" x="63" y="-152.5" font-family="Helvetica,sans-Serif" font-size="10.00">fiftyone_pipeline_core.flowelement.</text>
<text text-anchor="middle" x="150.5" y="-141.5" font-family="Helvetica,sans-Serif" font-size="10.00">FlowElement</text>
</a>
</g>
</g>
<!-- Node2&#45;&gt;Node1 -->
<g id="edge2" class="edge">
<title>Node2&#45;&gt;Node1</title>
<path fill="none" stroke="midnightblue" d="M150.5,-124.11C150.5,-115.15 150.5,-105.32 150.5,-97.58"/>
<polygon fill="midnightblue" stroke="midnightblue" points="147,-124.4 150.5,-134.4 154,-124.4 147,-124.4"/>
</g>
<!-- Node3 -->
<g id="node4" class="node">
<title>Node3</title>
<g id="a_node4"><a xlink:title=" ">
<polygon fill="none" stroke="#bfbfbf" points="127,-201.5 127,-220.5 174,-220.5 174,-201.5 127,-201.5"/>
<text text-anchor="middle" x="150.5" y="-208.5" font-family="Helvetica,sans-Serif" font-size="10.00">object</text>
</a>
</g>
</g>
<!-- Node3&#45;&gt;Node2 -->
<g id="edge3" class="edge">
<title>Node3&#45;&gt;Node2</title>
<path fill="none" stroke="midnightblue" d="M150.5,-191.23C150.5,-182.59 150.5,-172.5 150.5,-164.52"/>
<polygon fill="midnightblue" stroke="midnightblue" points="147,-191.48 150.5,-201.48 154,-191.48 147,-191.48"/>
</g>
</g>
</svg>
