<?xml version="1.0" encoding="UTF-8" standalone="no"?>
<!DOCTYPE svg PUBLIC "-//W3C//DTD SVG 1.1//EN"
 "http://www.w3.org/Graphics/SVG/1.1/DTD/svg11.dtd">
<!-- Generated by graphviz version 2.43.0 (0)
 -->
<!-- Title: fiftyone_pipeline_core.elementdata_dictionary.ElementDataDictionary Pages: 1 -->
<svg width="200pt" height="162pt"
 viewBox="0.00 0.00 200.00 162.00" xmlns="http://www.w3.org/2000/svg" xmlns:xlink="http://www.w3.org/1999/xlink">
<g id="graph0" class="graph" transform="scale(1 1) rotate(0) translate(4 158)">
<title>fiftyone_pipeline_core.elementdata_dictionary.ElementDataDictionary</title>
<!-- Node0 -->
<g id="node1" class="node">
<title>Node0</title>
<g id="a_node1"><a xlink:title="An extension of ElementData with dictionary object storage / lookup.">
<polygon fill="#bfbfbf" stroke="black" points="1.5,-0.5 1.5,-30.5 190.5,-30.5 190.5,-0.5 1.5,-0.5"/>
<text text-anchor="start" x="9.5" y="-18.5" font-family="Helvetica,sans-Serif" font-size="10.00">fiftyone_pipeline_core.elementdata</text>
<text text-anchor="middle" x="96" y="-7.5" font-family="Helvetica,sans-Serif" font-size="10.00">_dictionary.ElementDataDictionary</text>
</a>
</g>
</g>
<!-- Node1 -->
<g id="node2" class="node">
<title>Node1</title>
<g id="a_node2"><a xlink:href="classfiftyone__pipeline__core_1_1elementdata_1_1_element_data.html" target="_top" xlink:title="Core ElementData class Stores information created by a FlowElement based on FlowData.">
<polygon fill="none" stroke="black" points="0,-67.5 0,-97.5 192,-97.5 192,-67.5 0,-67.5"/>
<text text-anchor="start" x="8" y="-85.5" font-family="Helvetica,sans-Serif" font-size="10.00">fiftyone_pipeline_core.elementdata.</text>
<text text-anchor="middle" x="96" y="-74.5" font-family="Helvetica,sans-Serif" font-size="10.00">ElementData</text>
</a>
</g>
</g>
<!-- Node1&#45;&gt;Node0 -->
<g id="edge1" class="edge">
<title>Node1&#45;&gt;Node0</title>
<path fill="none" stroke="midnightblue" d="M96,-57.11C96,-48.15 96,-38.32 96,-30.58"/>
<polygon fill="midnightblue" stroke="midnightblue" points="92.5,-57.4 96,-67.4 99.5,-57.4 92.5,-57.4"/>
</g>
<!-- Node2 -->
<g id="node3" class="node">
<title>Node2</title>
<g id="a_node3"><a xlink:title=" ">
<polygon fill="none" stroke="#bfbfbf" points="72.5,-134.5 72.5,-153.5 119.5,-153.5 119.5,-134.5 72.5,-134.5"/>
<text text-anchor="middle" x="96" y="-141.5" font-family="Helvetica,sans-Serif" font-size="10.00">object</text>
</a>
</g>
</g>
<!-- Node2&#45;&gt;Node1 -->
<g id="edge2" class="edge">
<title>Node2&#45;&gt;Node1</title>
<path fill="none" stroke="midnightblue" d="M96,-124.23C96,-115.59 96,-105.5 96,-97.52"/>
<polygon fill="midnightblue" stroke="midnightblue" points="92.5,-124.48 96,-134.48 99.5,-124.48 92.5,-124.48"/>
</g>
</g>
</svg>
