<?xml version="1.0" encoding="UTF-8" standalone="no"?>
<!DOCTYPE svg PUBLIC "-//W3C//DTD SVG 1.1//EN"
 "http://www.w3.org/Graphics/SVG/1.1/DTD/svg11.dtd">
<!-- Generated by graphviz version 2.43.0 (0)
 -->
<!-- Title: fiftyone_pipeline_engines.aspectdata_dictionary.AspectDataDictionary Pages: 1 -->
<svg width="209pt" height="229pt"
 viewBox="0.00 0.00 209.00 229.00" xmlns="http://www.w3.org/2000/svg" xmlns:xlink="http://www.w3.org/1999/xlink">
<g id="graph0" class="graph" transform="scale(1 1) rotate(0) translate(4 225)">
<title>fiftyone_pipeline_engines.aspectdata_dictionary.AspectDataDictionary</title>
<!-- Node5 -->
<g id="node1" class="node">
<title>Node5</title>
<g id="a_node1"><a xlink:title="AspectDataDictionary class extension that stores content as dictionary.">
<polygon fill="#bfbfbf" stroke="black" points="1.5,-0.5 1.5,-30.5 199.5,-30.5 199.5,-0.5 1.5,-0.5"/>
<text text-anchor="start" x="9.5" y="-18.5" font-family="Helvetica,sans-Serif" font-size="10.00">fiftyone_pipeline_engines.aspectdata</text>
<text text-anchor="middle" x="100.5" y="-7.5" font-family="Helvetica,sans-Serif" font-size="10.00">_dictionary.AspectDataDictionary</text>
</a>
</g>
</g>
<!-- Node6 -->
<g id="node2" class="node">
<title>Node6</title>
<g id="a_node2"><a xlink:href="classfiftyone__pipeline__engines_1_1aspectdata_1_1_aspect_data.html" target="_top" xlink:title="AspectData extends elementData by adding the option of a missing property service It also allows prop...">
<polygon fill="none" stroke="black" points="0,-67.5 0,-97.5 201,-97.5 201,-67.5 0,-67.5"/>
<text text-anchor="start" x="8" y="-85.5" font-family="Helvetica,sans-Serif" font-size="10.00">fiftyone_pipeline_engines.aspectdata.</text>
<text text-anchor="middle" x="100.5" y="-74.5" font-family="Helvetica,sans-Serif" font-size="10.00">AspectData</text>
</a>
</g>
</g>
<!-- Node6&#45;&gt;Node5 -->
<g id="edge1" class="edge">
<title>Node6&#45;&gt;Node5</title>
<path fill="none" stroke="midnightblue" d="M100.5,-57.11C100.5,-48.15 100.5,-38.32 100.5,-30.58"/>
<polygon fill="midnightblue" stroke="midnightblue" points="97,-57.4 100.5,-67.4 104,-57.4 97,-57.4"/>
</g>
<!-- Node7 -->
<g id="node3" class="node">
<title>Node7</title>
<g id="a_node3"><a xlink:href="classfiftyone__pipeline__core_1_1elementdata_1_1_element_data.html" target="_top" xlink:title="Core ElementData class Stores information created by a FlowElement based on FlowData.">
<polygon fill="none" stroke="black" points="4.5,-134.5 4.5,-164.5 196.5,-164.5 196.5,-134.5 4.5,-134.5"/>
<text text-anchor="start" x="12.5" y="-152.5" font-family="Helvetica,sans-Serif" font-size="10.00">fiftyone_pipeline_core.elementdata.</text>
<text text-anchor="middle" x="100.5" y="-141.5" font-family="Helvetica,sans-Serif" font-size="10.00">ElementData</text>
</a>
</g>
</g>
<!-- Node7&#45;&gt;Node6 -->
<g id="edge2" class="edge">
<title>Node7&#45;&gt;Node6</title>
<path fill="none" stroke="midnightblue" d="M100.5,-124.11C100.5,-115.15 100.5,-105.32 100.5,-97.58"/>
<polygon fill="midnightblue" stroke="midnightblue" points="97,-124.4 100.5,-134.4 104,-124.4 97,-124.4"/>
</g>
<!-- Node8 -->
<g id="node4" class="node">
<title>Node8</title>
<g id="a_node4"><a xlink:title=" ">
<polygon fill="none" stroke="#bfbfbf" points="77,-201.5 77,-220.5 124,-220.5 124,-201.5 77,-201.5"/>
<text text-anchor="middle" x="100.5" y="-208.5" font-family="Helvetica,sans-Serif" font-size="10.00">object</text>
</a>
</g>
</g>
<!-- Node8&#45;&gt;Node7 -->
<g id="edge3" class="edge">
<title>Node8&#45;&gt;Node7</title>
<path fill="none" stroke="midnightblue" d="M100.5,-191.23C100.5,-182.59 100.5,-172.5 100.5,-164.52"/>
<polygon fill="midnightblue" stroke="midnightblue" points="97,-191.48 100.5,-201.48 104,-191.48 97,-191.48"/>
</g>
</g>
</svg>
