<?xml version="1.0" encoding="UTF-8" standalone="no"?>
<!DOCTYPE svg PUBLIC "-//W3C//DTD SVG 1.1//EN"
 "http://www.w3.org/Graphics/SVG/1.1/DTD/svg11.dtd">
<!-- Generated by graphviz version 2.43.0 (0)
 -->
<!-- Title: fiftyone_pipeline_engines.datakeyed_cache.DataKeyedCache Pages: 1 -->
<svg width="736pt" height="176pt"
 viewBox="0.00 0.00 736.00 175.50" xmlns="http://www.w3.org/2000/svg" xmlns:xlink="http://www.w3.org/1999/xlink">
<g id="graph0" class="graph" transform="scale(1 1) rotate(0) translate(4 171.5)">
<title>fiftyone_pipeline_engines.datakeyed_cache.DataKeyedCache</title>
<!-- Node0 -->
<g id="node1" class="node">
<title>Node0</title>
<g id="a_node1"><a xlink:title="A data keyed cache is the base class for caches used in the pipeline It does nothing on its own and s...">
<polygon fill="#bfbfbf" stroke="black" points="83,-63 83,-93 278,-93 278,-63 83,-63"/>
<text text-anchor="start" x="91" y="-81" font-family="Helvetica,sans-Serif" font-size="10.00">fiftyone_pipeline_engines.datakeyed</text>
<text text-anchor="middle" x="180.5" y="-70" font-family="Helvetica,sans-Serif" font-size="10.00">_cache.DataKeyedCache</text>
</a>
</g>
</g>
<!-- Node2 -->
<g id="node3" class="node">
<title>Node2</title>
<g id="a_node3"><a xlink:href="classfiftyone__pipeline__engines_1_1basic__dictionary__cache_1_1_basic_dictionary_cache.html" target="_top" xlink:title="A simple cache that stores its results in a dictionary.">
<polygon fill="none" stroke="black" points="314,-137 314,-167 528,-167 528,-137 314,-137"/>
<text text-anchor="start" x="322" y="-155" font-family="Helvetica,sans-Serif" font-size="10.00">fiftyone_pipeline_engines.basic</text>
<text text-anchor="middle" x="421" y="-144" font-family="Helvetica,sans-Serif" font-size="10.00">_dictionary_cache.BasicDictionaryCache</text>
</a>
</g>
</g>
<!-- Node0&#45;&gt;Node2 -->
<g id="edge2" class="edge">
<title>Node0&#45;&gt;Node2</title>
<path fill="none" stroke="midnightblue" d="M227.82,-96.72C253.04,-106.51 284.95,-118.24 314,-127 325.77,-130.55 338.39,-133.91 350.68,-136.94"/>
<polygon fill="midnightblue" stroke="midnightblue" points="229.08,-93.45 218.49,-93.07 226.53,-99.97 229.08,-93.45"/>
</g>
<!-- Node3 -->
<g id="node4" class="node">
<title>Node3</title>
<g id="a_node4"><a xlink:href="classfiftyone__pipeline__engines_1_1lru__cache_1_1_l_r_u_engine_cache.html" target="_top" xlink:title="An instance of DataKeyed cache using a least recently used (LRU) method.">
<polygon fill="none" stroke="black" points="342.5,-88 342.5,-118 499.5,-118 499.5,-88 342.5,-88"/>
<text text-anchor="start" x="350.5" y="-106" font-family="Helvetica,sans-Serif" font-size="10.00">fiftyone_pipeline_engines.lru</text>
<text text-anchor="middle" x="421" y="-95" font-family="Helvetica,sans-Serif" font-size="10.00">_cache.LRUEngineCache</text>
</a>
</g>
</g>
<!-- Node0&#45;&gt;Node3 -->
<g id="edge3" class="edge">
<title>Node0&#45;&gt;Node3</title>
<path fill="none" stroke="midnightblue" d="M288.21,-89.19C306.39,-91.09 324.97,-93.04 342.22,-94.85"/>
<polygon fill="midnightblue" stroke="midnightblue" points="288.47,-85.69 278.16,-88.13 287.74,-92.66 288.47,-85.69"/>
</g>
<!-- Node4 -->
<g id="node5" class="node">
<title>Node4</title>
<g id="a_node5"><a xlink:href="classfiftyone__pipeline__engines_1_1tracker_1_1_tracker.html" target="_top" xlink:title="A tracker is an instance of datakeyed cache which, if a result is found in the cache,...">
<polygon fill="none" stroke="black" points="331,-39 331,-69 511,-69 511,-39 331,-39"/>
<text text-anchor="start" x="339" y="-57" font-family="Helvetica,sans-Serif" font-size="10.00">fiftyone_pipeline_engines.tracker.</text>
<text text-anchor="middle" x="421" y="-46" font-family="Helvetica,sans-Serif" font-size="10.00">Tracker</text>
</a>
</g>
</g>
<!-- Node0&#45;&gt;Node4 -->
<g id="edge4" class="edge">
<title>Node0&#45;&gt;Node4</title>
<path fill="none" stroke="midnightblue" d="M288.44,-67.24C302.63,-65.81 317.06,-64.36 330.9,-62.97"/>
<polygon fill="midnightblue" stroke="midnightblue" points="287.76,-63.79 278.16,-68.27 288.46,-70.75 287.76,-63.79"/>
</g>
<!-- Node6 -->
<g id="node7" class="node">
<title>Node6</title>
<g id="a_node7"><a xlink:href="classtests_1_1test__engines_1_1_test_cache.html" target="_top" xlink:title=" ">
<polygon fill="none" stroke="black" points="342,-0.5 342,-19.5 500,-19.5 500,-0.5 342,-0.5"/>
<text text-anchor="middle" x="421" y="-7.5" font-family="Helvetica,sans-Serif" font-size="10.00">tests.test_engines.TestCache</text>
</a>
</g>
</g>
<!-- Node0&#45;&gt;Node6 -->
<g id="edge6" class="edge">
<title>Node0&#45;&gt;Node6</title>
<path fill="none" stroke="midnightblue" d="M226.29,-59.18C251.66,-49.1 284.2,-37.11 314,-29 327.53,-25.32 342.23,-22.16 356.25,-19.54"/>
<polygon fill="midnightblue" stroke="midnightblue" points="224.91,-55.97 216.93,-62.95 227.52,-62.46 224.91,-55.97"/>
</g>
<!-- Node1 -->
<g id="node2" class="node">
<title>Node1</title>
<g id="a_node2"><a xlink:title=" ">
<polygon fill="none" stroke="#bfbfbf" points="0,-68.5 0,-87.5 47,-87.5 47,-68.5 0,-68.5"/>
<text text-anchor="middle" x="23.5" y="-75.5" font-family="Helvetica,sans-Serif" font-size="10.00">object</text>
</a>
</g>
</g>
<!-- Node1&#45;&gt;Node0 -->
<g id="edge1" class="edge">
<title>Node1&#45;&gt;Node0</title>
<path fill="none" stroke="midnightblue" d="M57.09,-78C64.92,-78 73.69,-78 82.84,-78"/>
<polygon fill="midnightblue" stroke="midnightblue" points="57.04,-74.5 47.04,-78 57.04,-81.5 57.04,-74.5"/>
</g>
<!-- Node5 -->
<g id="node6" class="node">
<title>Node5</title>
<g id="a_node6"><a xlink:href="classfiftyone__pipeline__engines__fiftyone_1_1share__usage__tracker_1_1_share_usage_tracker.html" target="_top" xlink:title="The ShareUsageTracker is used by the ShareUsageElement to determine whether to put evidence into a bu...">
<polygon fill="none" stroke="black" points="564,-33.5 564,-74.5 728,-74.5 728,-33.5 564,-33.5"/>
<text text-anchor="start" x="572" y="-62.5" font-family="Helvetica,sans-Serif" font-size="10.00">fiftyone_pipeline_engines</text>
<text text-anchor="start" x="572" y="-51.5" font-family="Helvetica,sans-Serif" font-size="10.00">_fiftyone.share_usage_tracker.</text>
<text text-anchor="middle" x="646" y="-40.5" font-family="Helvetica,sans-Serif" font-size="10.00">ShareUsageTracker</text>
</a>
</g>
</g>
<!-- Node4&#45;&gt;Node5 -->
<g id="edge5" class="edge">
<title>Node4&#45;&gt;Node5</title>
<path fill="none" stroke="midnightblue" d="M521.41,-54C535.65,-54 550.16,-54 563.99,-54"/>
<polygon fill="midnightblue" stroke="midnightblue" points="521.1,-50.5 511.1,-54 521.1,-57.5 521.1,-50.5"/>
</g>
</g>
</svg>
