<?xml version="1.0" encoding="UTF-8" standalone="no"?>
<!DOCTYPE svg PUBLIC "-//W3C//DTD SVG 1.1//EN"
 "http://www.w3.org/Graphics/SVG/1.1/DTD/svg11.dtd">
<!-- Generated by graphviz version 2.43.0 (0)
 -->
<!-- Title: fiftyone_pipeline_engines.basic_dictionary_cache.BasicDictionaryCache Pages: 1 -->
<svg width="222pt" height="162pt"
 viewBox="0.00 0.00 222.00 162.00" xmlns="http://www.w3.org/2000/svg" xmlns:xlink="http://www.w3.org/1999/xlink">
<g id="graph0" class="graph" transform="scale(1 1) rotate(0) translate(4 158)">
<title>fiftyone_pipeline_engines.basic_dictionary_cache.BasicDictionaryCache</title>
<!-- Node0 -->
<g id="node1" class="node">
<title>Node0</title>
<g id="a_node1"><a xlink:title="A simple cache that stores its results in a dictionary.">
<polygon fill="#bfbfbf" stroke="black" points="0,-0.5 0,-30.5 214,-30.5 214,-0.5 0,-0.5"/>
<text text-anchor="start" x="8" y="-18.5" font-family="Helvetica,sans-Serif" font-size="10.00">fiftyone_pipeline_engines.basic</text>
<text text-anchor="middle" x="107" y="-7.5" font-family="Helvetica,sans-Serif" font-size="10.00">_dictionary_cache.BasicDictionaryCache</text>
</a>
</g>
</g>
<!-- Node1 -->
<g id="node2" class="node">
<title>Node1</title>
<g id="a_node2"><a xlink:href="classfiftyone__pipeline__engines_1_1datakeyed__cache_1_1_data_keyed_cache.html" target="_top" xlink:title="A data keyed cache is the base class for caches used in the pipeline It does nothing on its own and s...">
<polygon fill="none" stroke="black" points="9.5,-67.5 9.5,-97.5 204.5,-97.5 204.5,-67.5 9.5,-67.5"/>
<text text-anchor="start" x="17.5" y="-85.5" font-family="Helvetica,sans-Serif" font-size="10.00">fiftyone_pipeline_engines.datakeyed</text>
<text text-anchor="middle" x="107" y="-74.5" font-family="Helvetica,sans-Serif" font-size="10.00">_cache.DataKeyedCache</text>
</a>
</g>
</g>
<!-- Node1&#45;&gt;Node0 -->
<g id="edge1" class="edge">
<title>Node1&#45;&gt;Node0</title>
<path fill="none" stroke="midnightblue" d="M107,-57.11C107,-48.15 107,-38.32 107,-30.58"/>
<polygon fill="midnightblue" stroke="midnightblue" points="103.5,-57.4 107,-67.4 110.5,-57.4 103.5,-57.4"/>
</g>
<!-- Node2 -->
<g id="node3" class="node">
<title>Node2</title>
<g id="a_node3"><a xlink:title=" ">
<polygon fill="none" stroke="#bfbfbf" points="83.5,-134.5 83.5,-153.5 130.5,-153.5 130.5,-134.5 83.5,-134.5"/>
<text text-anchor="middle" x="107" y="-141.5" font-family="Helvetica,sans-Serif" font-size="10.00">object</text>
</a>
</g>
</g>
<!-- Node2&#45;&gt;Node1 -->
<g id="edge2" class="edge">
<title>Node2&#45;&gt;Node1</title>
<path fill="none" stroke="midnightblue" d="M107,-124.23C107,-115.59 107,-105.5 107,-97.52"/>
<polygon fill="midnightblue" stroke="midnightblue" points="103.5,-124.48 107,-134.48 110.5,-124.48 103.5,-124.48"/>
</g>
</g>
</svg>
