<?xml version="1.0" encoding="UTF-8" standalone="no"?>
<!DOCTYPE svg PUBLIC "-//W3C//DTD SVG 1.1//EN"
 "http://www.w3.org/Graphics/SVG/1.1/DTD/svg11.dtd">
<!-- Generated by graphviz version 2.43.0 (0)
 -->
<!-- Title: fiftyone_pipeline_core.flowelement.FlowElement Pages: 1 -->
<svg width="874pt" height="786pt"
 viewBox="0.00 0.00 874.00 785.50" xmlns="http://www.w3.org/2000/svg" xmlns:xlink="http://www.w3.org/1999/xlink">
<g id="graph0" class="graph" transform="scale(1 1) rotate(0) translate(4 781.5)">
<title>fiftyone_pipeline_core.flowelement.FlowElement</title>
<!-- Node0 -->
<g id="node1" class="node">
<title>Node0</title>
<g id="a_node1"><a xlink:title="A FlowElement is placed inside a Pipeline It receives Evidence via a FlowData object It uses this to ...">
<polygon fill="#bfbfbf" stroke="black" points="83,-367.5 83,-397.5 274,-397.5 274,-367.5 83,-367.5"/>
<text text-anchor="start" x="91" y="-385.5" font-family="Helvetica,sans-Serif" font-size="10.00">fiftyone_pipeline_core.flowelement.</text>
<text text-anchor="middle" x="178.5" y="-374.5" font-family="Helvetica,sans-Serif" font-size="10.00">FlowElement</text>
</a>
</g>
</g>
<!-- Node2 -->
<g id="node3" class="node">
<title>Node2</title>
<g id="a_node3"><a xlink:href="classexamples_1_1client__side__evidence__custom__flow__element_1_1_astrology_flow_element.html" target="_top" xlink:title=" ">
<polygon fill="none" stroke="black" points="331.5,-736 331.5,-777 507.5,-777 507.5,-736 331.5,-736"/>
<text text-anchor="start" x="339.5" y="-765" font-family="Helvetica,sans-Serif" font-size="10.00">examples.client_side</text>
<text text-anchor="start" x="339.5" y="-754" font-family="Helvetica,sans-Serif" font-size="10.00">_evidence_custom_flow</text>
<text text-anchor="middle" x="419.5" y="-743" font-family="Helvetica,sans-Serif" font-size="10.00">_element.AstrologyFlowElement</text>
</a>
</g>
</g>
<!-- Node0&#45;&gt;Node2 -->
<g id="edge2" class="edge">
<title>Node0&#45;&gt;Node2</title>
<path fill="none" stroke="midnightblue" d="M181.59,-408.1C188.18,-471.59 214.15,-637.49 310,-725.5 316.28,-731.26 323.55,-735.96 331.31,-739.79"/>
<polygon fill="midnightblue" stroke="midnightblue" points="185.04,-407.43 180.6,-397.81 178.08,-408.1 185.04,-407.43"/>
</g>
<!-- Node3 -->
<g id="node4" class="node">
<title>Node3</title>
<g id="a_node4"><a xlink:href="classfiftyone__pipeline__core_1_1javascriptbuilder_1_1_javascript_builder_element.html" target="_top" xlink:title="The JavaScriptBuilder aggregates JavaScript properties from FlowElements in the Pipeline.">
<polygon fill="none" stroke="black" points="314,-686.5 314,-716.5 525,-716.5 525,-686.5 314,-686.5"/>
<text text-anchor="start" x="322" y="-704.5" font-family="Helvetica,sans-Serif" font-size="10.00">fiftyone_pipeline_core.javascriptbuilder.</text>
<text text-anchor="middle" x="419.5" y="-693.5" font-family="Helvetica,sans-Serif" font-size="10.00">JavascriptBuilderElement</text>
</a>
</g>
</g>
<!-- Node0&#45;&gt;Node3 -->
<g id="edge3" class="edge">
<title>Node0&#45;&gt;Node3</title>
<path fill="none" stroke="midnightblue" d="M182.99,-407.45C192.33,-464.51 223.39,-605.06 310,-676.5 314.7,-680.37 319.88,-683.67 325.36,-686.48"/>
<polygon fill="midnightblue" stroke="midnightblue" points="186.43,-406.85 181.44,-397.5 179.52,-407.92 186.43,-406.85"/>
</g>
<!-- Node4 -->
<g id="node5" class="node">
<title>Node4</title>
<g id="a_node5"><a xlink:href="classfiftyone__pipeline__core_1_1jsonbundler_1_1_j_s_o_n_bundler_element.html" target="_top" xlink:title="The JSONBundler aggregates all properties from FlowElements into a JSON object It is used for retriev...">
<polygon fill="none" stroke="black" points="326.5,-637.5 326.5,-667.5 512.5,-667.5 512.5,-637.5 326.5,-637.5"/>
<text text-anchor="start" x="334.5" y="-655.5" font-family="Helvetica,sans-Serif" font-size="10.00">fiftyone_pipeline_core.jsonbundler.</text>
<text text-anchor="middle" x="419.5" y="-644.5" font-family="Helvetica,sans-Serif" font-size="10.00">JSONBundlerElement</text>
</a>
</g>
</g>
<!-- Node0&#45;&gt;Node4 -->
<g id="edge4" class="edge">
<title>Node0&#45;&gt;Node4</title>
<path fill="none" stroke="midnightblue" d="M185.46,-407.73C198.67,-457.9 235.34,-570.28 310,-627.5 315.06,-631.38 320.62,-634.68 326.47,-637.47"/>
<polygon fill="midnightblue" stroke="midnightblue" points="188.77,-406.57 182.92,-397.73 181.99,-408.29 188.77,-406.57"/>
</g>
<!-- Node5 -->
<g id="node6" class="node">
<title>Node5</title>
<g id="a_node6"><a xlink:href="classfiftyone__pipeline__core_1_1sequenceelement_1_1_sequence_element.html" target="_top" xlink:title="The SequenceElement stores session data regarding requests for client side JavaScript from the JavaSc...">
<polygon fill="none" stroke="black" points="311,-588.5 311,-618.5 528,-618.5 528,-588.5 311,-588.5"/>
<text text-anchor="start" x="319" y="-606.5" font-family="Helvetica,sans-Serif" font-size="10.00">fiftyone_pipeline_core.sequenceelement.</text>
<text text-anchor="middle" x="419.5" y="-595.5" font-family="Helvetica,sans-Serif" font-size="10.00">SequenceElement</text>
</a>
</g>
</g>
<!-- Node0&#45;&gt;Node5 -->
<g id="edge5" class="edge">
<title>Node0&#45;&gt;Node5</title>
<path fill="none" stroke="midnightblue" d="M188.72,-407.08C205.84,-449.16 246.63,-534.69 310,-578.5 315.64,-582.4 321.81,-585.7 328.24,-588.49"/>
<polygon fill="midnightblue" stroke="midnightblue" points="191.91,-405.62 184.97,-397.6 185.4,-408.19 191.91,-405.62"/>
</g>
<!-- Node6 -->
<g id="node7" class="node">
<title>Node6</title>
<g id="a_node7"><a xlink:href="classfiftyone__pipeline__core_1_1setheaderelement_1_1_set_header_element.html" target="_top" xlink:title="Set response headers element class.">
<polygon fill="none" stroke="black" points="310,-539.5 310,-569.5 529,-569.5 529,-539.5 310,-539.5"/>
<text text-anchor="start" x="318" y="-557.5" font-family="Helvetica,sans-Serif" font-size="10.00">fiftyone_pipeline_core.setheaderelement.</text>
<text text-anchor="middle" x="419.5" y="-546.5" font-family="Helvetica,sans-Serif" font-size="10.00">SetHeaderElement</text>
</a>
</g>
</g>
<!-- Node0&#45;&gt;Node6 -->
<g id="edge6" class="edge">
<title>Node0&#45;&gt;Node6</title>
<path fill="none" stroke="midnightblue" d="M193.83,-406.35C214.96,-439.38 257.69,-498.45 310,-529.5 316.57,-533.4 323.69,-536.69 331.04,-539.46"/>
<polygon fill="midnightblue" stroke="midnightblue" points="196.73,-404.39 188.45,-397.78 190.8,-408.11 196.73,-404.39"/>
</g>
<!-- Node7 -->
<g id="node8" class="node">
<title>Node7</title>
<g id="a_node8"><a xlink:href="classfiftyone__pipeline__engines_1_1engine_1_1_engine.html" target="_top" xlink:title="An engine is an extension of the FlowElement class that adds extra functionality.">
<polygon fill="none" stroke="black" points="329.5,-490.5 329.5,-520.5 509.5,-520.5 509.5,-490.5 329.5,-490.5"/>
<text text-anchor="start" x="337.5" y="-508.5" font-family="Helvetica,sans-Serif" font-size="10.00">fiftyone_pipeline_engines.engine.</text>
<text text-anchor="middle" x="419.5" y="-497.5" font-family="Helvetica,sans-Serif" font-size="10.00">Engine</text>
</a>
</g>
</g>
<!-- Node0&#45;&gt;Node7 -->
<g id="edge7" class="edge">
<title>Node0&#45;&gt;Node7</title>
<path fill="none" stroke="midnightblue" d="M202.34,-404.43C226.96,-426.86 268.27,-461.09 310,-480.5 318.33,-484.37 327.3,-487.67 336.39,-490.47"/>
<polygon fill="midnightblue" stroke="midnightblue" points="204.67,-401.82 194.95,-397.6 199.91,-406.96 204.67,-401.82"/>
</g>
<!-- Node12 -->
<g id="node13" class="node">
<title>Node12</title>
<g id="a_node13"><a xlink:href="classtests_1_1classes_1_1apvflowelement_1_1_a_p_v_flow_element.html" target="_top" xlink:title=" ">
<polygon fill="none" stroke="black" points="337.5,-441.5 337.5,-471.5 501.5,-471.5 501.5,-441.5 337.5,-441.5"/>
<text text-anchor="start" x="345.5" y="-459.5" font-family="Helvetica,sans-Serif" font-size="10.00">tests.classes.apvflowelement.</text>
<text text-anchor="middle" x="419.5" y="-448.5" font-family="Helvetica,sans-Serif" font-size="10.00">APVFlowElement</text>
</a>
</g>
</g>
<!-- Node0&#45;&gt;Node12 -->
<g id="edge12" class="edge">
<title>Node0&#45;&gt;Node12</title>
<path fill="none" stroke="midnightblue" d="M225.14,-401.34C249.96,-411.15 281.36,-422.87 310,-431.5 321.84,-435.07 334.55,-438.42 346.94,-441.43"/>
<polygon fill="midnightblue" stroke="midnightblue" points="226.21,-397.99 215.62,-397.54 223.61,-404.5 226.21,-397.99"/>
</g>
<!-- Node13 -->
<g id="node14" class="node">
<title>Node13</title>
<g id="a_node14"><a xlink:href="classtests_1_1classes_1_1errorflowdata_1_1_error_flow_data.html" target="_top" xlink:title=" ">
<polygon fill="none" stroke="black" points="344,-392.5 344,-422.5 495,-422.5 495,-392.5 344,-392.5"/>
<text text-anchor="start" x="352" y="-410.5" font-family="Helvetica,sans-Serif" font-size="10.00">tests.classes.errorflowdata.</text>
<text text-anchor="middle" x="419.5" y="-399.5" font-family="Helvetica,sans-Serif" font-size="10.00">ErrorFlowData</text>
</a>
</g>
</g>
<!-- Node0&#45;&gt;Node13 -->
<g id="edge13" class="edge">
<title>Node0&#45;&gt;Node13</title>
<path fill="none" stroke="midnightblue" d="M284.37,-393.47C304.36,-395.56 324.9,-397.71 343.71,-399.68"/>
<polygon fill="midnightblue" stroke="midnightblue" points="284.61,-389.98 274.3,-392.42 283.88,-396.94 284.61,-389.98"/>
</g>
<!-- Node14 -->
<g id="node15" class="node">
<title>Node14</title>
<g id="a_node15"><a xlink:href="classtests_1_1classes_1_1exampleflowelement1_1_1_example_flow_element1.html" target="_top" xlink:title=" ">
<polygon fill="none" stroke="black" points="322,-343.5 322,-373.5 517,-373.5 517,-343.5 322,-343.5"/>
<text text-anchor="start" x="330" y="-361.5" font-family="Helvetica,sans-Serif" font-size="10.00">tests.classes.exampleflowelement1.</text>
<text text-anchor="middle" x="419.5" y="-350.5" font-family="Helvetica,sans-Serif" font-size="10.00">ExampleFlowElement1</text>
</a>
</g>
</g>
<!-- Node0&#45;&gt;Node14 -->
<g id="edge14" class="edge">
<title>Node0&#45;&gt;Node14</title>
<path fill="none" stroke="midnightblue" d="M284.27,-371.98C296.76,-370.72 309.48,-369.45 321.85,-368.2"/>
<polygon fill="midnightblue" stroke="midnightblue" points="283.9,-368.5 274.3,-372.98 284.6,-375.46 283.9,-368.5"/>
</g>
<!-- Node15 -->
<g id="node16" class="node">
<title>Node15</title>
<g id="a_node16"><a xlink:href="classtests_1_1classes_1_1exampleflowelement2_1_1_example_flow_element2.html" target="_top" xlink:title=" ">
<polygon fill="none" stroke="black" points="322,-294.5 322,-324.5 517,-324.5 517,-294.5 322,-294.5"/>
<text text-anchor="start" x="330" y="-312.5" font-family="Helvetica,sans-Serif" font-size="10.00">tests.classes.exampleflowelement2.</text>
<text text-anchor="middle" x="419.5" y="-301.5" font-family="Helvetica,sans-Serif" font-size="10.00">ExampleFlowElement2</text>
</a>
</g>
</g>
<!-- Node0&#45;&gt;Node15 -->
<g id="edge15" class="edge">
<title>Node0&#45;&gt;Node15</title>
<path fill="none" stroke="midnightblue" d="M224.84,-363.67C249.7,-353.81 281.22,-342.04 310,-333.5 320.91,-330.26 332.56,-327.24 344.02,-324.51"/>
<polygon fill="midnightblue" stroke="midnightblue" points="223.3,-360.52 215.32,-367.48 225.9,-367.01 223.3,-360.52"/>
</g>
<!-- Node16 -->
<g id="node17" class="node">
<title>Node16</title>
<g id="a_node17"><a xlink:href="classtests_1_1classes_1_1stopflowdata_1_1_stop_flow_data.html" target="_top" xlink:title=" ">
<polygon fill="none" stroke="black" points="345,-245.5 345,-275.5 494,-275.5 494,-245.5 345,-245.5"/>
<text text-anchor="start" x="353" y="-263.5" font-family="Helvetica,sans-Serif" font-size="10.00">tests.classes.stopflowdata.</text>
<text text-anchor="middle" x="419.5" y="-252.5" font-family="Helvetica,sans-Serif" font-size="10.00">StopFlowData</text>
</a>
</g>
</g>
<!-- Node0&#45;&gt;Node16 -->
<g id="edge16" class="edge">
<title>Node0&#45;&gt;Node16</title>
<path fill="none" stroke="midnightblue" d="M202.3,-360.49C226.9,-338 268.19,-303.72 310,-284.5 320.87,-279.5 332.84,-275.52 344.73,-272.35"/>
<polygon fill="midnightblue" stroke="midnightblue" points="199.87,-357.98 194.92,-367.35 204.63,-363.11 199.87,-357.98"/>
</g>
<!-- Node17 -->
<g id="node18" class="node">
<title>Node17</title>
<g id="a_node18"><a xlink:href="classtests_1_1test__javascriptbuilder_1_1_cookie_engine.html" target="_top" xlink:title=" ">
<polygon fill="none" stroke="black" points="343.5,-196.5 343.5,-226.5 495.5,-226.5 495.5,-196.5 343.5,-196.5"/>
<text text-anchor="start" x="351.5" y="-214.5" font-family="Helvetica,sans-Serif" font-size="10.00">tests.test_javascriptbuilder.</text>
<text text-anchor="middle" x="419.5" y="-203.5" font-family="Helvetica,sans-Serif" font-size="10.00">CookieEngine</text>
</a>
</g>
</g>
<!-- Node0&#45;&gt;Node17 -->
<g id="edge17" class="edge">
<title>Node0&#45;&gt;Node17</title>
<path fill="none" stroke="midnightblue" d="M193.79,-358.58C214.88,-325.48 257.56,-266.32 310,-235.5 320.23,-229.49 331.81,-224.98 343.49,-221.6"/>
<polygon fill="midnightblue" stroke="midnightblue" points="190.75,-356.84 188.42,-367.18 196.69,-360.55 190.75,-356.84"/>
</g>
<!-- Node18 -->
<g id="node19" class="node">
<title>Node18</title>
<g id="a_node19"><a xlink:href="classtests_1_1test__javascriptbuilder_1_1_delayed_execution_engine1.html" target="_top" xlink:title=" ">
<polygon fill="none" stroke="black" points="343.5,-147.5 343.5,-177.5 495.5,-177.5 495.5,-147.5 343.5,-147.5"/>
<text text-anchor="start" x="351.5" y="-165.5" font-family="Helvetica,sans-Serif" font-size="10.00">tests.test_javascriptbuilder.</text>
<text text-anchor="middle" x="419.5" y="-154.5" font-family="Helvetica,sans-Serif" font-size="10.00">DelayedExecutionEngine1</text>
</a>
</g>
</g>
<!-- Node0&#45;&gt;Node18 -->
<g id="edge18" class="edge">
<title>Node0&#45;&gt;Node18</title>
<path fill="none" stroke="midnightblue" d="M188.68,-357.86C205.74,-315.69 246.44,-230.04 310,-186.5 319.95,-179.69 331.51,-174.77 343.29,-171.23"/>
<polygon fill="midnightblue" stroke="midnightblue" points="185.35,-356.77 184.95,-367.36 191.87,-359.33 185.35,-356.77"/>
</g>
<!-- Node19 -->
<g id="node20" class="node">
<title>Node19</title>
<g id="a_node20"><a xlink:href="classtests_1_1test__javascriptbuilder_1_1_delayed_execution_engine2.html" target="_top" xlink:title=" ">
<polygon fill="none" stroke="black" points="343.5,-98.5 343.5,-128.5 495.5,-128.5 495.5,-98.5 343.5,-98.5"/>
<text text-anchor="start" x="351.5" y="-116.5" font-family="Helvetica,sans-Serif" font-size="10.00">tests.test_javascriptbuilder.</text>
<text text-anchor="middle" x="419.5" y="-105.5" font-family="Helvetica,sans-Serif" font-size="10.00">DelayedExecutionEngine2</text>
</a>
</g>
</g>
<!-- Node0&#45;&gt;Node19 -->
<g id="edge19" class="edge">
<title>Node0&#45;&gt;Node19</title>
<path fill="none" stroke="midnightblue" d="M185.41,-357.22C198.55,-306.95 235.09,-194.39 310,-137.5 319.76,-130.09 331.35,-124.88 343.26,-121.23"/>
<polygon fill="midnightblue" stroke="midnightblue" points="181.94,-356.68 182.89,-367.23 188.73,-358.39 181.94,-356.68"/>
</g>
<!-- Node20 -->
<g id="node21" class="node">
<title>Node20</title>
<g id="a_node21"><a xlink:href="classtests_1_1test__javascriptbuilder_1_1_delayed_execution_engine3.html" target="_top" xlink:title=" ">
<polygon fill="none" stroke="black" points="343.5,-49.5 343.5,-79.5 495.5,-79.5 495.5,-49.5 343.5,-49.5"/>
<text text-anchor="start" x="351.5" y="-67.5" font-family="Helvetica,sans-Serif" font-size="10.00">tests.test_javascriptbuilder.</text>
<text text-anchor="middle" x="419.5" y="-56.5" font-family="Helvetica,sans-Serif" font-size="10.00">DelayedExecutionEngine3</text>
</a>
</g>
</g>
<!-- Node0&#45;&gt;Node20 -->
<g id="edge20" class="edge">
<title>Node0&#45;&gt;Node20</title>
<path fill="none" stroke="midnightblue" d="M182.94,-357.49C192.2,-300.33 223.08,-159.56 310,-88.5 319.63,-80.62 331.3,-75.19 343.36,-71.48"/>
<polygon fill="midnightblue" stroke="midnightblue" points="179.47,-357.05 181.41,-367.46 186.39,-358.11 179.47,-357.05"/>
</g>
<!-- Node21 -->
<g id="node22" class="node">
<title>Node21</title>
<g id="a_node22"><a xlink:href="classtests_1_1test__javascriptbuilder_1_1_test_engine.html" target="_top" xlink:title=" ">
<polygon fill="none" stroke="black" points="343.5,-0.5 343.5,-30.5 495.5,-30.5 495.5,-0.5 343.5,-0.5"/>
<text text-anchor="start" x="351.5" y="-18.5" font-family="Helvetica,sans-Serif" font-size="10.00">tests.test_javascriptbuilder.</text>
<text text-anchor="middle" x="419.5" y="-7.5" font-family="Helvetica,sans-Serif" font-size="10.00">TestEngine</text>
</a>
</g>
</g>
<!-- Node0&#45;&gt;Node21 -->
<g id="edge21" class="edge">
<title>Node0&#45;&gt;Node21</title>
<path fill="none" stroke="midnightblue" d="M181.23,-356.98C187,-292.99 211.3,-124.76 310,-39.5 319.49,-31.3 331.16,-25.72 343.28,-21.95"/>
<polygon fill="midnightblue" stroke="midnightblue" points="177.71,-357.08 180.38,-367.34 184.69,-357.66 177.71,-357.08"/>
</g>
<!-- Node1 -->
<g id="node2" class="node">
<title>Node1</title>
<g id="a_node2"><a xlink:title=" ">
<polygon fill="none" stroke="#bfbfbf" points="0,-373 0,-392 47,-392 47,-373 0,-373"/>
<text text-anchor="middle" x="23.5" y="-380" font-family="Helvetica,sans-Serif" font-size="10.00">object</text>
</a>
</g>
</g>
<!-- Node1&#45;&gt;Node0 -->
<g id="edge1" class="edge">
<title>Node1&#45;&gt;Node0</title>
<path fill="none" stroke="midnightblue" d="M57.1,-382.5C64.92,-382.5 73.65,-382.5 82.75,-382.5"/>
<polygon fill="midnightblue" stroke="midnightblue" points="57.08,-379 47.08,-382.5 57.08,-386 57.08,-379"/>
</g>
<!-- Node8 -->
<g id="node9" class="node">
<title>Node8</title>
<g id="a_node9"><a xlink:href="classfiftyone__pipeline__cloudrequestengine_1_1cloudengine_1_1_cloud_engine.html" target="_top" xlink:title="This is a template for all 51Degrees cloud engines.">
<polygon fill="none" stroke="black" points="583.5,-563.5 583.5,-593.5 847.5,-593.5 847.5,-563.5 583.5,-563.5"/>
<text text-anchor="start" x="591.5" y="-581.5" font-family="Helvetica,sans-Serif" font-size="10.00">fiftyone_pipeline_cloudrequestengine.cloudengine.</text>
<text text-anchor="middle" x="715.5" y="-570.5" font-family="Helvetica,sans-Serif" font-size="10.00">CloudEngine</text>
</a>
</g>
</g>
<!-- Node7&#45;&gt;Node8 -->
<g id="edge8" class="edge">
<title>Node7&#45;&gt;Node8</title>
<path fill="none" stroke="midnightblue" d="M513.32,-523.58C518.69,-525.38 523.95,-527.35 529,-529.5 546.69,-537.04 547.12,-546.42 565,-553.5 574.79,-557.37 585.17,-560.65 595.71,-563.41"/>
<polygon fill="midnightblue" stroke="midnightblue" points="514.15,-520.17 503.56,-520.51 512.05,-526.85 514.15,-520.17"/>
</g>
<!-- Node9 -->
<g id="node10" class="node">
<title>Node9</title>
<g id="a_node10"><a xlink:href="classfiftyone__pipeline__cloudrequestengine_1_1cloudrequestengine_1_1_cloud_request_engine.html" target="_top" xlink:title=" ">
<polygon fill="none" stroke="black" points="565,-514.5 565,-544.5 866,-544.5 866,-514.5 565,-514.5"/>
<text text-anchor="start" x="573" y="-532.5" font-family="Helvetica,sans-Serif" font-size="10.00">fiftyone_pipeline_cloudrequestengine.cloudrequestengine.</text>
<text text-anchor="middle" x="715.5" y="-521.5" font-family="Helvetica,sans-Serif" font-size="10.00">CloudRequestEngine</text>
</a>
</g>
</g>
<!-- Node7&#45;&gt;Node9 -->
<g id="edge9" class="edge">
<title>Node7&#45;&gt;Node9</title>
<path fill="none" stroke="midnightblue" d="M519.53,-513.58C534.17,-514.78 549.53,-516.03 564.93,-517.29"/>
<polygon fill="midnightblue" stroke="midnightblue" points="519.76,-510.09 509.51,-512.77 519.19,-517.07 519.76,-510.09"/>
</g>
<!-- Node10 -->
<g id="node11" class="node">
<title>Node10</title>
<g id="a_node11"><a xlink:href="classfiftyone__pipeline__engines__fiftyone_1_1share__usage_1_1_share_usage.html" target="_top" xlink:title=" ">
<polygon fill="none" stroke="black" points="623,-465.5 623,-495.5 808,-495.5 808,-465.5 623,-465.5"/>
<text text-anchor="start" x="631" y="-483.5" font-family="Helvetica,sans-Serif" font-size="10.00">fiftyone_pipeline_engines</text>
<text text-anchor="middle" x="715.5" y="-472.5" font-family="Helvetica,sans-Serif" font-size="10.00">_fiftyone.share_usage.ShareUsage</text>
</a>
</g>
</g>
<!-- Node7&#45;&gt;Node10 -->
<g id="edge10" class="edge">
<title>Node7&#45;&gt;Node10</title>
<path fill="none" stroke="midnightblue" d="M519.74,-497.06C553.14,-494.22 590.23,-491.07 623,-488.28"/>
<polygon fill="midnightblue" stroke="midnightblue" points="519.17,-493.6 509.51,-497.93 519.77,-500.57 519.17,-493.6"/>
</g>
<!-- Node11 -->
<g id="node12" class="node">
<title>Node11</title>
<g id="a_node12"><a xlink:href="classtests_1_1test__engines_1_1_example_aspect_engine.html" target="_top" xlink:title=" ">
<polygon fill="none" stroke="black" points="639.5,-416.5 639.5,-446.5 791.5,-446.5 791.5,-416.5 639.5,-416.5"/>
<text text-anchor="start" x="647.5" y="-434.5" font-family="Helvetica,sans-Serif" font-size="10.00">tests.test_engines.Example</text>
<text text-anchor="middle" x="715.5" y="-423.5" font-family="Helvetica,sans-Serif" font-size="10.00">AspectEngine</text>
</a>
</g>
</g>
<!-- Node7&#45;&gt;Node11 -->
<g id="edge11" class="edge">
<title>Node7&#45;&gt;Node11</title>
<path fill="none" stroke="midnightblue" d="M511.26,-487.36C517.35,-485.29 523.32,-483.02 529,-480.5 546.81,-472.62 546.93,-462.78 565,-455.5 588.28,-446.12 615,-440.39 639.35,-436.91"/>
<polygon fill="midnightblue" stroke="midnightblue" points="510.08,-484.06 501.61,-490.42 512.2,-490.73 510.08,-484.06"/>
</g>
</g>
</svg>
