<?xml version="1.0" encoding="UTF-8" standalone="no"?>
<!DOCTYPE svg PUBLIC "-//W3C//DTD SVG 1.1//EN"
 "http://www.w3.org/Graphics/SVG/1.1/DTD/svg11.dtd">
<!-- Generated by graphviz version 2.43.0 (0)
 -->
<!-- Title: pipeline&#45;python.fiftyone_pipeline_engines.fiftyone_pipeline_engines.datakeyed_cache.DataKeyedCache Pages: 1 -->
<svg width="524pt" height="242pt"
 viewBox="0.00 0.00 524.00 241.50" xmlns="http://www.w3.org/2000/svg" xmlns:xlink="http://www.w3.org/1999/xlink">
<g id="graph0" class="graph" transform="scale(1 1) rotate(0) translate(4 237.5)">
<title>pipeline&#45;python.fiftyone_pipeline_engines.fiftyone_pipeline_engines.datakeyed_cache.DataKeyedCache</title>
<!-- Node0 -->
<g id="node1" class="node">
<title>Node0</title>
<g id="a_node1"><a xlink:title="A data keyed cache is the base class for caches used in the pipeline It does nothing on its own and s...">
<polygon fill="#bfbfbf" stroke="black" points="83,-85 83,-137 241,-137 241,-85 83,-85"/>
<text text-anchor="start" x="91" y="-125" font-family="Helvetica,sans-Serif" font-size="10.00">pipeline&#45;python.fiftyone</text>
<text text-anchor="start" x="91" y="-114" font-family="Helvetica,sans-Serif" font-size="10.00">_pipeline_engines.fiftyone</text>
<text text-anchor="start" x="91" y="-103" font-family="Helvetica,sans-Serif" font-size="10.00">_pipeline_engines.datakeyed</text>
<text text-anchor="middle" x="162" y="-92" font-family="Helvetica,sans-Serif" font-size="10.00">_cache.DataKeyedCache</text>
</a>
</g>
</g>
<!-- Node2 -->
<g id="node3" class="node">
<title>Node2</title>
<g id="a_node3"><a xlink:href="classpipeline-python_1_1fiftyone__pipeline__engines_1_1fiftyone__pipeline__engines_1_1basic__dic274685231732835260723d7ce9c28fa6.html" target="_top" xlink:title="A simple cache that stores its results in a dictionary.">
<polygon fill="none" stroke="black" points="303,-181 303,-233 490,-233 490,-181 303,-181"/>
<text text-anchor="start" x="311" y="-221" font-family="Helvetica,sans-Serif" font-size="10.00">pipeline&#45;python.fiftyone</text>
<text text-anchor="start" x="311" y="-210" font-family="Helvetica,sans-Serif" font-size="10.00">_pipeline_engines.fiftyone</text>
<text text-anchor="start" x="311" y="-199" font-family="Helvetica,sans-Serif" font-size="10.00">_pipeline_engines.basic_dictionary</text>
<text text-anchor="middle" x="396.5" y="-188" font-family="Helvetica,sans-Serif" font-size="10.00">_cache.BasicDictionaryCache</text>
</a>
</g>
</g>
<!-- Node0&#45;&gt;Node2 -->
<g id="edge2" class="edge">
<title>Node0&#45;&gt;Node2</title>
<path fill="none" stroke="midnightblue" d="M216.77,-141.98C235.47,-152.03 256.82,-162.71 277,-171 285.45,-174.47 294.37,-177.78 303.35,-180.89"/>
<polygon fill="midnightblue" stroke="midnightblue" points="218.27,-138.82 207.82,-137.11 214.93,-144.96 218.27,-138.82"/>
</g>
<!-- Node3 -->
<g id="node4" class="node">
<title>Node3</title>
<g id="a_node4"><a xlink:href="classpipeline-python_1_1fiftyone__pipeline__engines_1_1fiftyone__pipeline__engines_1_1lru__cache_1_1_l_r_u_engine_cache.html" target="_top" xlink:title="An instance of DataKeyed cache using a least recently used (LRU) method.">
<polygon fill="none" stroke="black" points="277,-120.5 277,-161.5 516,-161.5 516,-120.5 277,-120.5"/>
<text text-anchor="start" x="285" y="-149.5" font-family="Helvetica,sans-Serif" font-size="10.00">pipeline&#45;python.fiftyone</text>
<text text-anchor="start" x="285" y="-138.5" font-family="Helvetica,sans-Serif" font-size="10.00">_pipeline_engines.fiftyone</text>
<text text-anchor="middle" x="396.5" y="-127.5" font-family="Helvetica,sans-Serif" font-size="10.00">_pipeline_engines.lru_cache.LRUEngineCache</text>
</a>
</g>
</g>
<!-- Node0&#45;&gt;Node3 -->
<g id="edge3" class="edge">
<title>Node0&#45;&gt;Node3</title>
<path fill="none" stroke="midnightblue" d="M251.15,-122.37C259.5,-123.45 268.07,-124.56 276.65,-125.66"/>
<polygon fill="midnightblue" stroke="midnightblue" points="251.43,-118.88 241.07,-121.07 250.54,-125.82 251.43,-118.88"/>
</g>
<!-- Node4 -->
<g id="node5" class="node">
<title>Node4</title>
<g id="a_node5"><a xlink:href="classpipeline-python_1_1fiftyone__pipeline__engines_1_1fiftyone__pipeline__engines_1_1tracker_1_1_tracker.html" target="_top" xlink:title="A tracker is an instance of datakeyed cache which, if a result is found in the cache,...">
<polygon fill="none" stroke="black" points="307.5,-60.5 307.5,-101.5 485.5,-101.5 485.5,-60.5 307.5,-60.5"/>
<text text-anchor="start" x="315.5" y="-89.5" font-family="Helvetica,sans-Serif" font-size="10.00">pipeline&#45;python.fiftyone</text>
<text text-anchor="start" x="315.5" y="-78.5" font-family="Helvetica,sans-Serif" font-size="10.00">_pipeline_engines.fiftyone</text>
<text text-anchor="middle" x="396.5" y="-67.5" font-family="Helvetica,sans-Serif" font-size="10.00">_pipeline_engines.tracker.Tracker</text>
</a>
</g>
</g>
<!-- Node0&#45;&gt;Node4 -->
<g id="edge4" class="edge">
<title>Node0&#45;&gt;Node4</title>
<path fill="none" stroke="midnightblue" d="M251.15,-99.63C269.51,-97.26 288.86,-94.76 307.22,-92.39"/>
<polygon fill="midnightblue" stroke="midnightblue" points="250.54,-96.18 241.07,-100.93 251.43,-103.12 250.54,-96.18"/>
</g>
<!-- Node5 -->
<g id="node6" class="node">
<title>Node5</title>
<g id="a_node6"><a xlink:href="classpipeline-python_1_1fiftyone__pipeline__engines_1_1tests_1_1test__engines_1_1_test_cache.html" target="_top" xlink:title=" ">
<polygon fill="none" stroke="black" points="320,-0.5 320,-41.5 473,-41.5 473,-0.5 320,-0.5"/>
<text text-anchor="start" x="328" y="-29.5" font-family="Helvetica,sans-Serif" font-size="10.00">pipeline&#45;python.fiftyone</text>
<text text-anchor="start" x="328" y="-18.5" font-family="Helvetica,sans-Serif" font-size="10.00">_pipeline_engines.tests.test</text>
<text text-anchor="middle" x="396.5" y="-7.5" font-family="Helvetica,sans-Serif" font-size="10.00">_engines.TestCache</text>
</a>
</g>
</g>
<!-- Node0&#45;&gt;Node5 -->
<g id="edge5" class="edge">
<title>Node0&#45;&gt;Node5</title>
<path fill="none" stroke="midnightblue" d="M215.31,-80.15C234.28,-69.85 256.18,-58.99 277,-51 290.57,-45.79 305.37,-41.23 319.76,-37.33"/>
<polygon fill="midnightblue" stroke="midnightblue" points="213.6,-77.09 206.53,-84.98 216.98,-83.22 213.6,-77.09"/>
</g>
<!-- Node1 -->
<g id="node2" class="node">
<title>Node1</title>
<g id="a_node2"><a xlink:title=" ">
<polygon fill="none" stroke="#bfbfbf" points="0,-101.5 0,-120.5 47,-120.5 47,-101.5 0,-101.5"/>
<text text-anchor="middle" x="23.5" y="-108.5" font-family="Helvetica,sans-Serif" font-size="10.00">object</text>
</a>
</g>
</g>
<!-- Node1&#45;&gt;Node0 -->
<g id="edge1" class="edge">
<title>Node1&#45;&gt;Node0</title>
<path fill="none" stroke="midnightblue" d="M57.22,-111C65.14,-111 73.93,-111 82.96,-111"/>
<polygon fill="midnightblue" stroke="midnightblue" points="57.04,-107.5 47.04,-111 57.04,-114.5 57.04,-107.5"/>
</g>
</g>
</svg>
