<?xml version="1.0" encoding="UTF-8" standalone="no"?>
<!DOCTYPE svg PUBLIC "-//W3C//DTD SVG 1.1//EN"
 "http://www.w3.org/Graphics/SVG/1.1/DTD/svg11.dtd">
<!-- Generated by graphviz version 2.43.0 (0)
 -->
<!-- Title: fiftyone_pipeline_core.elementdata.ElementData Pages: 1 -->
<svg width="1043pt" height="88pt"
 viewBox="0.00 0.00 1043.00 88.00" xmlns="http://www.w3.org/2000/svg" xmlns:xlink="http://www.w3.org/1999/xlink">
<g id="graph0" class="graph" transform="scale(1 1) rotate(0) translate(4 84)">
<title>fiftyone_pipeline_core.elementdata.ElementData</title>
<!-- Node0 -->
<g id="node1" class="node">
<title>Node0</title>
<g id="a_node1"><a xlink:title="Core ElementData class Stores information created by a FlowElement based on FlowData.">
<polygon fill="#bfbfbf" stroke="black" points="83,-24.5 83,-54.5 275,-54.5 275,-24.5 83,-24.5"/>
<text text-anchor="start" x="91" y="-42.5" font-family="Helvetica,sans-Serif" font-size="10.00">fiftyone_pipeline_core.elementdata.</text>
<text text-anchor="middle" x="179" y="-31.5" font-family="Helvetica,sans-Serif" font-size="10.00">ElementData</text>
</a>
</g>
</g>
<!-- Node2 -->
<g id="node3" class="node">
<title>Node2</title>
<g id="a_node3"><a xlink:href="classfiftyone__pipeline__core_1_1elementdata__dictionary_1_1_element_data_dictionary.html" target="_top" xlink:title="An extension of ElementData with dictionary object storage / lookup.">
<polygon fill="none" stroke="black" points="317,-49.5 317,-79.5 506,-79.5 506,-49.5 317,-49.5"/>
<text text-anchor="start" x="325" y="-67.5" font-family="Helvetica,sans-Serif" font-size="10.00">fiftyone_pipeline_core.elementdata</text>
<text text-anchor="middle" x="411.5" y="-56.5" font-family="Helvetica,sans-Serif" font-size="10.00">_dictionary.ElementDataDictionary</text>
</a>
</g>
</g>
<!-- Node0&#45;&gt;Node2 -->
<g id="edge2" class="edge">
<title>Node0&#45;&gt;Node2</title>
<path fill="none" stroke="midnightblue" d="M285.14,-50.9C295.68,-52.05 306.34,-53.2 316.75,-54.33"/>
<polygon fill="midnightblue" stroke="midnightblue" points="285.4,-47.41 275.08,-49.81 284.65,-54.37 285.4,-47.41"/>
</g>
<!-- Node3 -->
<g id="node4" class="node">
<title>Node3</title>
<g id="a_node4"><a xlink:href="classfiftyone__pipeline__engines_1_1aspectdata_1_1_aspect_data.html" target="_top" xlink:title="AspectData extends elementData by adding the option of a missing property service It also allows prop...">
<polygon fill="none" stroke="black" points="311,-0.5 311,-30.5 512,-30.5 512,-0.5 311,-0.5"/>
<text text-anchor="start" x="319" y="-18.5" font-family="Helvetica,sans-Serif" font-size="10.00">fiftyone_pipeline_engines.aspectdata.</text>
<text text-anchor="middle" x="411.5" y="-7.5" font-family="Helvetica,sans-Serif" font-size="10.00">AspectData</text>
</a>
</g>
</g>
<!-- Node0&#45;&gt;Node3 -->
<g id="edge3" class="edge">
<title>Node0&#45;&gt;Node3</title>
<path fill="none" stroke="midnightblue" d="M285.08,-28.56C293.64,-27.67 302.27,-26.77 310.78,-25.88"/>
<polygon fill="midnightblue" stroke="midnightblue" points="284.67,-25.08 275.08,-29.6 285.39,-32.05 284.67,-25.08"/>
</g>
<!-- Node1 -->
<g id="node2" class="node">
<title>Node1</title>
<g id="a_node2"><a xlink:title=" ">
<polygon fill="none" stroke="#bfbfbf" points="0,-30 0,-49 47,-49 47,-30 0,-30"/>
<text text-anchor="middle" x="23.5" y="-37" font-family="Helvetica,sans-Serif" font-size="10.00">object</text>
</a>
</g>
</g>
<!-- Node1&#45;&gt;Node0 -->
<g id="edge1" class="edge">
<title>Node1&#45;&gt;Node0</title>
<path fill="none" stroke="midnightblue" d="M57.21,-39.5C65.05,-39.5 73.81,-39.5 82.94,-39.5"/>
<polygon fill="midnightblue" stroke="midnightblue" points="57.15,-36 47.15,-39.5 57.15,-43 57.15,-36"/>
</g>
<!-- Node4 -->
<g id="node5" class="node">
<title>Node4</title>
<g id="a_node5"><a xlink:href="classfiftyone__pipeline__engines_1_1aspectdata__dictionary_1_1_aspect_data_dictionary.html" target="_top" xlink:title="AspectDataDictionary class extension that stores content as dictionary.">
<polygon fill="none" stroke="black" points="548,-0.5 548,-30.5 746,-30.5 746,-0.5 548,-0.5"/>
<text text-anchor="start" x="556" y="-18.5" font-family="Helvetica,sans-Serif" font-size="10.00">fiftyone_pipeline_engines.aspectdata</text>
<text text-anchor="middle" x="647" y="-7.5" font-family="Helvetica,sans-Serif" font-size="10.00">_dictionary.AspectDataDictionary</text>
</a>
</g>
</g>
<!-- Node3&#45;&gt;Node4 -->
<g id="edge4" class="edge">
<title>Node3&#45;&gt;Node4</title>
<path fill="none" stroke="midnightblue" d="M522.46,-15.5C530.9,-15.5 539.39,-15.5 547.75,-15.5"/>
<polygon fill="midnightblue" stroke="midnightblue" points="522.2,-12 512.2,-15.5 522.2,-19 522.2,-12"/>
</g>
<!-- Node5 -->
<g id="node6" class="node">
<title>Node5</title>
<g id="a_node6"><a xlink:href="classfiftyone__pipeline__cloudrequestengine_1_1clouddata_1_1_cloud_data.html" target="_top" xlink:title="Extention of AspectData made for retrieving cloud engine results.">
<polygon fill="none" stroke="black" points="782,-0.5 782,-30.5 1035,-30.5 1035,-0.5 782,-0.5"/>
<text text-anchor="start" x="790" y="-18.5" font-family="Helvetica,sans-Serif" font-size="10.00">fiftyone_pipeline_cloudrequestengine.clouddata.</text>
<text text-anchor="middle" x="908.5" y="-7.5" font-family="Helvetica,sans-Serif" font-size="10.00">CloudData</text>
</a>
</g>
</g>
<!-- Node4&#45;&gt;Node5 -->
<g id="edge5" class="edge">
<title>Node4&#45;&gt;Node5</title>
<path fill="none" stroke="midnightblue" d="M756.27,-15.5C764.66,-15.5 773.17,-15.5 781.66,-15.5"/>
<polygon fill="midnightblue" stroke="midnightblue" points="756.11,-12 746.11,-15.5 756.11,-19 756.11,-12"/>
</g>
</g>
</svg>
