<?xml version="1.0" encoding="UTF-8" standalone="no"?>
<!DOCTYPE svg PUBLIC "-//W3C//DTD SVG 1.1//EN"
 "http://www.w3.org/Graphics/SVG/1.1/DTD/svg11.dtd">
<!-- Generated by graphviz version 2.43.0 (0)
 -->
<!-- Title: fiftyone_pipeline_core.flowelement.FlowElement Pages: 1 -->
<svg width="874pt" height="737pt"
 viewBox="0.00 0.00 874.00 736.50" xmlns="http://www.w3.org/2000/svg" xmlns:xlink="http://www.w3.org/1999/xlink">
<g id="graph0" class="graph" transform="scale(1 1) rotate(0) translate(4 732.5)">
<title>fiftyone_pipeline_core.flowelement.FlowElement</title>
<!-- Node0 -->
<g id="node1" class="node">
<title>Node0</title>
<g id="a_node1"><a xlink:title="A FlowElement is placed inside a Pipeline It receives Evidence via a FlowData object It uses this to ...">
<polygon fill="#bfbfbf" stroke="black" points="83,-343.5 83,-373.5 274,-373.5 274,-343.5 83,-343.5"/>
<text text-anchor="start" x="91" y="-361.5" font-family="Helvetica,sans-Serif" font-size="10.00">fiftyone_pipeline_core.flowelement.</text>
<text text-anchor="middle" x="178.5" y="-350.5" font-family="Helvetica,sans-Serif" font-size="10.00">FlowElement</text>
</a>
</g>
</g>
<!-- Node2 -->
<g id="node3" class="node">
<title>Node2</title>
<g id="a_node3"><a xlink:href="classexamples_1_1client__side__evidence__custom__flow__element_1_1_astrology_flow_element.html" target="_top" xlink:title=" ">
<polygon fill="none" stroke="black" points="331.5,-687 331.5,-728 507.5,-728 507.5,-687 331.5,-687"/>
<text text-anchor="start" x="339.5" y="-716" font-family="Helvetica,sans-Serif" font-size="10.00">examples.client_side</text>
<text text-anchor="start" x="339.5" y="-705" font-family="Helvetica,sans-Serif" font-size="10.00">_evidence_custom_flow</text>
<text text-anchor="middle" x="419.5" y="-694" font-family="Helvetica,sans-Serif" font-size="10.00">_element.AstrologyFlowElement</text>
</a>
</g>
</g>
<!-- Node0&#45;&gt;Node2 -->
<g id="edge2" class="edge">
<title>Node0&#45;&gt;Node2</title>
<path fill="none" stroke="midnightblue" d="M182.36,-384.02C190.5,-444.42 219.44,-597.09 310,-677.5 316.36,-683.14 323.69,-687.74 331.47,-691.47"/>
<polygon fill="midnightblue" stroke="midnightblue" points="185.8,-383.33 181.07,-373.85 178.85,-384.21 185.8,-383.33"/>
</g>
<!-- Node3 -->
<g id="node4" class="node">
<title>Node3</title>
<g id="a_node4"><a xlink:href="classfiftyone__pipeline__core_1_1javascriptbuilder_1_1_javascript_builder_element.html" target="_top" xlink:title="The JavaScriptBuilder aggregates JavaScript properties from FlowElements in the Pipeline.">
<polygon fill="none" stroke="black" points="314,-637.5 314,-667.5 525,-667.5 525,-637.5 314,-637.5"/>
<text text-anchor="start" x="322" y="-655.5" font-family="Helvetica,sans-Serif" font-size="10.00">fiftyone_pipeline_core.javascriptbuilder.</text>
<text text-anchor="middle" x="419.5" y="-644.5" font-family="Helvetica,sans-Serif" font-size="10.00">JavascriptBuilderElement</text>
</a>
</g>
</g>
<!-- Node0&#45;&gt;Node3 -->
<g id="edge3" class="edge">
<title>Node0&#45;&gt;Node3</title>
<path fill="none" stroke="midnightblue" d="M184.13,-383.53C195.4,-437.13 229.48,-563.34 310,-627.5 314.84,-631.35 320.16,-634.64 325.77,-637.43"/>
<polygon fill="midnightblue" stroke="midnightblue" points="187.52,-382.64 182.11,-373.53 180.65,-384.02 187.52,-382.64"/>
</g>
<!-- Node4 -->
<g id="node5" class="node">
<title>Node4</title>
<g id="a_node5"><a xlink:href="classfiftyone__pipeline__core_1_1jsonbundler_1_1_j_s_o_n_bundler_element.html" target="_top" xlink:title="The JSONBundler aggregates all properties from FlowElements into a JSON object It is used for retriev...">
<polygon fill="none" stroke="black" points="326.5,-588.5 326.5,-618.5 512.5,-618.5 512.5,-588.5 326.5,-588.5"/>
<text text-anchor="start" x="334.5" y="-606.5" font-family="Helvetica,sans-Serif" font-size="10.00">fiftyone_pipeline_core.jsonbundler.</text>
<text text-anchor="middle" x="419.5" y="-595.5" font-family="Helvetica,sans-Serif" font-size="10.00">JSONBundlerElement</text>
</a>
</g>
</g>
<!-- Node0&#45;&gt;Node4 -->
<g id="edge4" class="edge">
<title>Node0&#45;&gt;Node4</title>
<path fill="none" stroke="midnightblue" d="M186.97,-383.41C202.15,-429.56 241.14,-528.19 310,-578.5 315.31,-582.38 321.12,-585.67 327.21,-588.45"/>
<polygon fill="midnightblue" stroke="midnightblue" points="190.23,-382.1 183.85,-373.63 183.56,-384.23 190.23,-382.1"/>
</g>
<!-- Node5 -->
<g id="node6" class="node">
<title>Node5</title>
<g id="a_node6"><a xlink:href="classfiftyone__pipeline__core_1_1sequenceelement_1_1_sequence_element.html" target="_top" xlink:title="The SequenceElement stores session data regarding requests for client side JavaScript from the JavaSc...">
<polygon fill="none" stroke="black" points="311,-539.5 311,-569.5 528,-569.5 528,-539.5 311,-539.5"/>
<text text-anchor="start" x="319" y="-557.5" font-family="Helvetica,sans-Serif" font-size="10.00">fiftyone_pipeline_core.sequenceelement.</text>
<text text-anchor="middle" x="419.5" y="-546.5" font-family="Helvetica,sans-Serif" font-size="10.00">SequenceElement</text>
</a>
</g>
</g>
<!-- Node0&#45;&gt;Node5 -->
<g id="edge5" class="edge">
<title>Node0&#45;&gt;Node5</title>
<path fill="none" stroke="midnightblue" d="M191.08,-382.88C210.28,-420.53 252.38,-492.35 310,-529.5 316.01,-533.38 322.55,-536.65 329.34,-539.42"/>
<polygon fill="midnightblue" stroke="midnightblue" points="194.08,-381.05 186.49,-373.66 187.81,-384.17 194.08,-381.05"/>
</g>
<!-- Node6 -->
<g id="node7" class="node">
<title>Node6</title>
<g id="a_node7"><a xlink:href="classfiftyone__pipeline__core_1_1setheaderelement_1_1_set_header_element.html" target="_top" xlink:title="Set response headers element class.">
<polygon fill="none" stroke="black" points="310,-490.5 310,-520.5 529,-520.5 529,-490.5 310,-490.5"/>
<text text-anchor="start" x="318" y="-508.5" font-family="Helvetica,sans-Serif" font-size="10.00">fiftyone_pipeline_core.setheaderelement.</text>
<text text-anchor="middle" x="419.5" y="-497.5" font-family="Helvetica,sans-Serif" font-size="10.00">SetHeaderElement</text>
</a>
</g>
</g>
<!-- Node0&#45;&gt;Node6 -->
<g id="edge6" class="edge">
<title>Node0&#45;&gt;Node6</title>
<path fill="none" stroke="midnightblue" d="M197.51,-381.54C220.54,-409.37 263.11,-455.54 310,-480.5 317.34,-484.41 325.27,-487.7 333.39,-490.49"/>
<polygon fill="midnightblue" stroke="midnightblue" points="200.03,-379.09 191,-373.54 194.6,-383.5 200.03,-379.09"/>
</g>
<!-- Node7 -->
<g id="node8" class="node">
<title>Node7</title>
<g id="a_node8"><a xlink:href="classfiftyone__pipeline__engines_1_1engine_1_1_engine.html" target="_top" xlink:title="An engine is an extension of the FlowElement class that adds extra functionality.">
<polygon fill="none" stroke="black" points="329.5,-441.5 329.5,-471.5 509.5,-471.5 509.5,-441.5 329.5,-441.5"/>
<text text-anchor="start" x="337.5" y="-459.5" font-family="Helvetica,sans-Serif" font-size="10.00">fiftyone_pipeline_engines.engine.</text>
<text text-anchor="middle" x="419.5" y="-448.5" font-family="Helvetica,sans-Serif" font-size="10.00">Engine</text>
</a>
</g>
</g>
<!-- Node0&#45;&gt;Node7 -->
<g id="edge7" class="edge">
<title>Node0&#45;&gt;Node7</title>
<path fill="none" stroke="midnightblue" d="M210.65,-379.26C236.35,-395.55 274.25,-417.71 310,-431.5 319.83,-435.29 330.39,-438.6 340.93,-441.47"/>
<polygon fill="midnightblue" stroke="midnightblue" points="212.4,-376.23 202.1,-373.77 208.62,-382.12 212.4,-376.23"/>
</g>
<!-- Node12 -->
<g id="node13" class="node">
<title>Node12</title>
<g id="a_node13"><a xlink:href="classtests_1_1classes_1_1apvflowelement_1_1_a_p_v_flow_element.html" target="_top" xlink:title=" ">
<polygon fill="none" stroke="black" points="337.5,-392.5 337.5,-422.5 501.5,-422.5 501.5,-392.5 337.5,-392.5"/>
<text text-anchor="start" x="345.5" y="-410.5" font-family="Helvetica,sans-Serif" font-size="10.00">tests.classes.apvflowelement.</text>
<text text-anchor="middle" x="419.5" y="-399.5" font-family="Helvetica,sans-Serif" font-size="10.00">APVFlowElement</text>
</a>
</g>
</g>
<!-- Node0&#45;&gt;Node12 -->
<g id="edge12" class="edge">
<title>Node0&#45;&gt;Node12</title>
<path fill="none" stroke="midnightblue" d="M262.97,-375.61C289.79,-381.11 319.28,-387.16 345.31,-392.49"/>
<polygon fill="midnightblue" stroke="midnightblue" points="263.33,-372.11 252.83,-373.53 261.93,-378.97 263.33,-372.11"/>
</g>
<!-- Node13 -->
<g id="node14" class="node">
<title>Node13</title>
<g id="a_node14"><a xlink:href="classtests_1_1classes_1_1errorflowdata_1_1_error_flow_data.html" target="_top" xlink:title=" ">
<polygon fill="none" stroke="black" points="344,-343.5 344,-373.5 495,-373.5 495,-343.5 344,-343.5"/>
<text text-anchor="start" x="352" y="-361.5" font-family="Helvetica,sans-Serif" font-size="10.00">tests.classes.errorflowdata.</text>
<text text-anchor="middle" x="419.5" y="-350.5" font-family="Helvetica,sans-Serif" font-size="10.00">ErrorFlowData</text>
</a>
</g>
</g>
<!-- Node0&#45;&gt;Node13 -->
<g id="edge13" class="edge">
<title>Node0&#45;&gt;Node13</title>
<path fill="none" stroke="midnightblue" d="M284.37,-358.5C304.36,-358.5 324.9,-358.5 343.71,-358.5"/>
<polygon fill="midnightblue" stroke="midnightblue" points="284.3,-355 274.3,-358.5 284.3,-362 284.3,-355"/>
</g>
<!-- Node14 -->
<g id="node15" class="node">
<title>Node14</title>
<g id="a_node15"><a xlink:href="classtests_1_1classes_1_1exampleflowelement1_1_1_example_flow_element1.html" target="_top" xlink:title=" ">
<polygon fill="none" stroke="black" points="322,-294.5 322,-324.5 517,-324.5 517,-294.5 322,-294.5"/>
<text text-anchor="start" x="330" y="-312.5" font-family="Helvetica,sans-Serif" font-size="10.00">tests.classes.exampleflowelement1.</text>
<text text-anchor="middle" x="419.5" y="-301.5" font-family="Helvetica,sans-Serif" font-size="10.00">ExampleFlowElement1</text>
</a>
</g>
</g>
<!-- Node0&#45;&gt;Node14 -->
<g id="edge14" class="edge">
<title>Node0&#45;&gt;Node14</title>
<path fill="none" stroke="midnightblue" d="M262.97,-341.39C289.79,-335.89 319.28,-329.84 345.31,-324.51"/>
<polygon fill="midnightblue" stroke="midnightblue" points="261.93,-338.03 252.83,-343.47 263.33,-344.89 261.93,-338.03"/>
</g>
<!-- Node15 -->
<g id="node16" class="node">
<title>Node15</title>
<g id="a_node16"><a xlink:href="classtests_1_1classes_1_1exampleflowelement2_1_1_example_flow_element2.html" target="_top" xlink:title=" ">
<polygon fill="none" stroke="black" points="322,-245.5 322,-275.5 517,-275.5 517,-245.5 322,-245.5"/>
<text text-anchor="start" x="330" y="-263.5" font-family="Helvetica,sans-Serif" font-size="10.00">tests.classes.exampleflowelement2.</text>
<text text-anchor="middle" x="419.5" y="-252.5" font-family="Helvetica,sans-Serif" font-size="10.00">ExampleFlowElement2</text>
</a>
</g>
</g>
<!-- Node0&#45;&gt;Node15 -->
<g id="edge15" class="edge">
<title>Node0&#45;&gt;Node15</title>
<path fill="none" stroke="midnightblue" d="M210.11,-337.65C235.77,-321.05 273.9,-298.37 310,-284.5 318.82,-281.11 328.25,-278.14 337.71,-275.55"/>
<polygon fill="midnightblue" stroke="midnightblue" points="208.03,-334.83 201.58,-343.24 211.86,-340.68 208.03,-334.83"/>
</g>
<!-- Node16 -->
<g id="node17" class="node">
<title>Node16</title>
<g id="a_node17"><a xlink:href="classtests_1_1classes_1_1stopflowdata_1_1_stop_flow_data.html" target="_top" xlink:title=" ">
<polygon fill="none" stroke="black" points="345,-196.5 345,-226.5 494,-226.5 494,-196.5 345,-196.5"/>
<text text-anchor="start" x="353" y="-214.5" font-family="Helvetica,sans-Serif" font-size="10.00">tests.classes.stopflowdata.</text>
<text text-anchor="middle" x="419.5" y="-203.5" font-family="Helvetica,sans-Serif" font-size="10.00">StopFlowData</text>
</a>
</g>
</g>
<!-- Node0&#45;&gt;Node16 -->
<g id="edge16" class="edge">
<title>Node0&#45;&gt;Node16</title>
<path fill="none" stroke="midnightblue" d="M197.43,-335.2C220.39,-307.07 262.87,-260.44 310,-235.5 320.74,-229.81 332.77,-225.47 344.8,-222.16"/>
<polygon fill="midnightblue" stroke="midnightblue" points="194.47,-333.3 190.95,-343.29 199.93,-337.67 194.47,-333.3"/>
</g>
<!-- Node17 -->
<g id="node18" class="node">
<title>Node17</title>
<g id="a_node18"><a xlink:href="classtests_1_1test__javascriptbuilder_1_1_delayed_execution_engine1.html" target="_top" xlink:title=" ">
<polygon fill="none" stroke="black" points="343.5,-147.5 343.5,-177.5 495.5,-177.5 495.5,-147.5 343.5,-147.5"/>
<text text-anchor="start" x="351.5" y="-165.5" font-family="Helvetica,sans-Serif" font-size="10.00">tests.test_javascriptbuilder.</text>
<text text-anchor="middle" x="419.5" y="-154.5" font-family="Helvetica,sans-Serif" font-size="10.00">DelayedExecutionEngine1</text>
</a>
</g>
</g>
<!-- Node0&#45;&gt;Node17 -->
<g id="edge17" class="edge">
<title>Node0&#45;&gt;Node17</title>
<path fill="none" stroke="midnightblue" d="M191.01,-333.91C210.1,-295.96 252.05,-223.62 310,-186.5 320.07,-180.05 331.63,-175.31 343.36,-171.84"/>
<polygon fill="midnightblue" stroke="midnightblue" points="187.71,-332.7 186.44,-343.21 193.99,-335.78 187.71,-332.7"/>
</g>
<!-- Node18 -->
<g id="node19" class="node">
<title>Node18</title>
<g id="a_node19"><a xlink:href="classtests_1_1test__javascriptbuilder_1_1_delayed_execution_engine2.html" target="_top" xlink:title=" ">
<polygon fill="none" stroke="black" points="343.5,-98.5 343.5,-128.5 495.5,-128.5 495.5,-98.5 343.5,-98.5"/>
<text text-anchor="start" x="351.5" y="-116.5" font-family="Helvetica,sans-Serif" font-size="10.00">tests.test_javascriptbuilder.</text>
<text text-anchor="middle" x="419.5" y="-105.5" font-family="Helvetica,sans-Serif" font-size="10.00">DelayedExecutionEngine2</text>
</a>
</g>
</g>
<!-- Node0&#45;&gt;Node18 -->
<g id="edge18" class="edge">
<title>Node0&#45;&gt;Node18</title>
<path fill="none" stroke="midnightblue" d="M186.8,-333.71C201.79,-287.39 240.59,-187.85 310,-137.5 319.84,-130.36 331.41,-125.29 343.25,-121.69"/>
<polygon fill="midnightblue" stroke="midnightblue" points="183.46,-332.67 183.81,-343.26 190.14,-334.77 183.46,-332.67"/>
</g>
<!-- Node19 -->
<g id="node20" class="node">
<title>Node19</title>
<g id="a_node20"><a xlink:href="classtests_1_1test__javascriptbuilder_1_1_delayed_execution_engine3.html" target="_top" xlink:title=" ">
<polygon fill="none" stroke="black" points="343.5,-49.5 343.5,-79.5 495.5,-79.5 495.5,-49.5 343.5,-49.5"/>
<text text-anchor="start" x="351.5" y="-67.5" font-family="Helvetica,sans-Serif" font-size="10.00">tests.test_javascriptbuilder.</text>
<text text-anchor="middle" x="419.5" y="-56.5" font-family="Helvetica,sans-Serif" font-size="10.00">DelayedExecutionEngine3</text>
</a>
</g>
</g>
<!-- Node0&#45;&gt;Node19 -->
<g id="edge19" class="edge">
<title>Node0&#45;&gt;Node19</title>
<path fill="none" stroke="midnightblue" d="M184.05,-333.32C195.18,-279.42 229.01,-152.55 310,-88.5 319.68,-80.84 331.31,-75.51 343.3,-71.83"/>
<polygon fill="midnightblue" stroke="midnightblue" points="180.57,-332.89 182.07,-343.38 187.44,-334.25 180.57,-332.89"/>
</g>
<!-- Node20 -->
<g id="node21" class="node">
<title>Node20</title>
<g id="a_node21"><a xlink:href="classtests_1_1test__javascriptbuilder_1_1_test_engine.html" target="_top" xlink:title=" ">
<polygon fill="none" stroke="black" points="343.5,-0.5 343.5,-30.5 495.5,-30.5 495.5,-0.5 343.5,-0.5"/>
<text text-anchor="start" x="351.5" y="-18.5" font-family="Helvetica,sans-Serif" font-size="10.00">tests.test_javascriptbuilder.</text>
<text text-anchor="middle" x="419.5" y="-7.5" font-family="Helvetica,sans-Serif" font-size="10.00">TestEngine</text>
</a>
</g>
</g>
<!-- Node0&#45;&gt;Node20 -->
<g id="edge20" class="edge">
<title>Node0&#45;&gt;Node20</title>
<path fill="none" stroke="midnightblue" d="M182.03,-333.09C189.51,-272.3 217.16,-117.71 310,-39.5 319.59,-31.42 331.31,-25.9 343.45,-22.15"/>
<polygon fill="midnightblue" stroke="midnightblue" points="178.52,-332.98 180.86,-343.31 185.48,-333.78 178.52,-332.98"/>
</g>
<!-- Node1 -->
<g id="node2" class="node">
<title>Node1</title>
<g id="a_node2"><a xlink:title=" ">
<polygon fill="none" stroke="#bfbfbf" points="0,-349 0,-368 47,-368 47,-349 0,-349"/>
<text text-anchor="middle" x="23.5" y="-356" font-family="Helvetica,sans-Serif" font-size="10.00">object</text>
</a>
</g>
</g>
<!-- Node1&#45;&gt;Node0 -->
<g id="edge1" class="edge">
<title>Node1&#45;&gt;Node0</title>
<path fill="none" stroke="midnightblue" d="M57.1,-358.5C64.92,-358.5 73.65,-358.5 82.75,-358.5"/>
<polygon fill="midnightblue" stroke="midnightblue" points="57.08,-355 47.08,-358.5 57.08,-362 57.08,-355"/>
</g>
<!-- Node8 -->
<g id="node9" class="node">
<title>Node8</title>
<g id="a_node9"><a xlink:href="classfiftyone__pipeline__cloudrequestengine_1_1cloudengine_1_1_cloud_engine.html" target="_top" xlink:title="This is a template for all 51Degrees cloud engines.">
<polygon fill="none" stroke="black" points="583.5,-514.5 583.5,-544.5 847.5,-544.5 847.5,-514.5 583.5,-514.5"/>
<text text-anchor="start" x="591.5" y="-532.5" font-family="Helvetica,sans-Serif" font-size="10.00">fiftyone_pipeline_cloudrequestengine.cloudengine.</text>
<text text-anchor="middle" x="715.5" y="-521.5" font-family="Helvetica,sans-Serif" font-size="10.00">CloudEngine</text>
</a>
</g>
</g>
<!-- Node7&#45;&gt;Node8 -->
<g id="edge8" class="edge">
<title>Node7&#45;&gt;Node8</title>
<path fill="none" stroke="midnightblue" d="M513.32,-474.58C518.69,-476.38 523.95,-478.35 529,-480.5 546.69,-488.04 547.12,-497.42 565,-504.5 574.79,-508.37 585.17,-511.65 595.71,-514.41"/>
<polygon fill="midnightblue" stroke="midnightblue" points="514.15,-471.17 503.56,-471.51 512.05,-477.85 514.15,-471.17"/>
</g>
<!-- Node9 -->
<g id="node10" class="node">
<title>Node9</title>
<g id="a_node10"><a xlink:href="classfiftyone__pipeline__cloudrequestengine_1_1cloudrequestengine_1_1_cloud_request_engine.html" target="_top" xlink:title=" ">
<polygon fill="none" stroke="black" points="565,-465.5 565,-495.5 866,-495.5 866,-465.5 565,-465.5"/>
<text text-anchor="start" x="573" y="-483.5" font-family="Helvetica,sans-Serif" font-size="10.00">fiftyone_pipeline_cloudrequestengine.cloudrequestengine.</text>
<text text-anchor="middle" x="715.5" y="-472.5" font-family="Helvetica,sans-Serif" font-size="10.00">CloudRequestEngine</text>
</a>
</g>
</g>
<!-- Node7&#45;&gt;Node9 -->
<g id="edge9" class="edge">
<title>Node7&#45;&gt;Node9</title>
<path fill="none" stroke="midnightblue" d="M519.53,-464.58C534.17,-465.78 549.53,-467.03 564.93,-468.29"/>
<polygon fill="midnightblue" stroke="midnightblue" points="519.76,-461.09 509.51,-463.77 519.19,-468.07 519.76,-461.09"/>
</g>
<!-- Node10 -->
<g id="node11" class="node">
<title>Node10</title>
<g id="a_node11"><a xlink:href="classfiftyone__pipeline__engines__fiftyone_1_1share__usage_1_1_share_usage.html" target="_top" xlink:title=" ">
<polygon fill="none" stroke="black" points="623,-416.5 623,-446.5 808,-446.5 808,-416.5 623,-416.5"/>
<text text-anchor="start" x="631" y="-434.5" font-family="Helvetica,sans-Serif" font-size="10.00">fiftyone_pipeline_engines</text>
<text text-anchor="middle" x="715.5" y="-423.5" font-family="Helvetica,sans-Serif" font-size="10.00">_fiftyone.share_usage.ShareUsage</text>
</a>
</g>
</g>
<!-- Node7&#45;&gt;Node10 -->
<g id="edge10" class="edge">
<title>Node7&#45;&gt;Node10</title>
<path fill="none" stroke="midnightblue" d="M519.74,-448.06C553.14,-445.22 590.23,-442.07 623,-439.28"/>
<polygon fill="midnightblue" stroke="midnightblue" points="519.17,-444.6 509.51,-448.93 519.77,-451.57 519.17,-444.6"/>
</g>
<!-- Node11 -->
<g id="node12" class="node">
<title>Node11</title>
<g id="a_node12"><a xlink:href="classtests_1_1test__engines_1_1_example_aspect_engine.html" target="_top" xlink:title=" ">
<polygon fill="none" stroke="black" points="639.5,-367.5 639.5,-397.5 791.5,-397.5 791.5,-367.5 639.5,-367.5"/>
<text text-anchor="start" x="647.5" y="-385.5" font-family="Helvetica,sans-Serif" font-size="10.00">tests.test_engines.Example</text>
<text text-anchor="middle" x="715.5" y="-374.5" font-family="Helvetica,sans-Serif" font-size="10.00">AspectEngine</text>
</a>
</g>
</g>
<!-- Node7&#45;&gt;Node11 -->
<g id="edge11" class="edge">
<title>Node7&#45;&gt;Node11</title>
<path fill="none" stroke="midnightblue" d="M511.26,-438.36C517.35,-436.29 523.32,-434.02 529,-431.5 546.81,-423.62 546.93,-413.78 565,-406.5 588.28,-397.12 615,-391.39 639.35,-387.91"/>
<polygon fill="midnightblue" stroke="midnightblue" points="510.08,-435.06 501.61,-441.42 512.2,-441.73 510.08,-435.06"/>
</g>
</g>
</svg>
