<?xml version="1.0" encoding="UTF-8" standalone="no"?>
<!DOCTYPE svg PUBLIC "-//W3C//DTD SVG 1.1//EN"
 "http://www.w3.org/Graphics/SVG/1.1/DTD/svg11.dtd">
<!-- Generated by graphviz version 2.43.0 (0)
 -->
<!-- Title: pipeline&#45;python.fiftyone_pipeline_engines.fiftyone_pipeline_engines.engine.Engine Pages: 1 -->
<svg width="184pt" height="184pt"
 viewBox="0.00 0.00 184.00 184.00" xmlns="http://www.w3.org/2000/svg" xmlns:xlink="http://www.w3.org/1999/xlink">
<g id="graph0" class="graph" transform="scale(1 1) rotate(0) translate(4 180)">
<title>pipeline&#45;python.fiftyone_pipeline_engines.fiftyone_pipeline_engines.engine.Engine</title>
<!-- Node0 -->
<g id="node1" class="node">
<title>Node0</title>
<g id="a_node1"><a xlink:title="An engine is an extension of the FlowElement class that adds extra functionality.">
<polygon fill="#bfbfbf" stroke="black" points="0,-78.5 0,-119.5 176,-119.5 176,-78.5 0,-78.5"/>
<text text-anchor="start" x="8" y="-107.5" font-family="Helvetica,sans-Serif" font-size="10.00">pipeline&#45;python.fiftyone</text>
<text text-anchor="start" x="8" y="-96.5" font-family="Helvetica,sans-Serif" font-size="10.00">_pipeline_engines.fiftyone</text>
<text text-anchor="middle" x="88" y="-85.5" font-family="Helvetica,sans-Serif" font-size="10.00">_pipeline_engines.engine.Engine</text>
</a>
</g>
</g>
<!-- Node2 -->
<g id="node3" class="node">
<title>Node2</title>
<g id="a_node3"><a xlink:href="classpipeline-python_1_1fiftyone__pipeline__engines_1_1tests_1_1test__engines_1_1_example_aspect_engine.html" target="_top" xlink:title=" ">
<polygon fill="none" stroke="black" points="2,-0.5 2,-41.5 174,-41.5 174,-0.5 2,-0.5"/>
<text text-anchor="start" x="10" y="-29.5" font-family="Helvetica,sans-Serif" font-size="10.00">pipeline&#45;python.fiftyone</text>
<text text-anchor="start" x="10" y="-18.5" font-family="Helvetica,sans-Serif" font-size="10.00">_pipeline_engines.tests.test</text>
<text text-anchor="middle" x="88" y="-7.5" font-family="Helvetica,sans-Serif" font-size="10.00">_engines.ExampleAspectEngine</text>
</a>
</g>
</g>
<!-- Node0&#45;&gt;Node2 -->
<g id="edge2" class="edge">
<title>Node0&#45;&gt;Node2</title>
<path fill="none" stroke="midnightblue" d="M88,-68.3C88,-59.3 88,-49.65 88,-41.51"/>
<polygon fill="midnightblue" stroke="midnightblue" points="84.5,-68.43 88,-78.43 91.5,-68.43 84.5,-68.43"/>
</g>
<!-- Node1 -->
<g id="node2" class="node">
<title>Node1</title>
<g id="a_node2"><a xlink:title=" ">
<polygon fill="none" stroke="#bfbfbf" points="48,-156.5 48,-175.5 128,-175.5 128,-156.5 48,-156.5"/>
<text text-anchor="middle" x="88" y="-163.5" font-family="Helvetica,sans-Serif" font-size="10.00">FlowElement</text>
</a>
</g>
</g>
<!-- Node1&#45;&gt;Node0 -->
<g id="edge1" class="edge">
<title>Node1&#45;&gt;Node0</title>
<path fill="none" stroke="midnightblue" d="M88,-146.04C88,-137.71 88,-127.94 88,-119.54"/>
<polygon fill="midnightblue" stroke="midnightblue" points="84.5,-146.23 88,-156.23 91.5,-146.23 84.5,-146.23"/>
</g>
</g>
</svg>
