<?xml version="1.0" encoding="UTF-8" standalone="no"?>
<!DOCTYPE svg PUBLIC "-//W3C//DTD SVG 1.1//EN"
 "http://www.w3.org/Graphics/SVG/1.1/DTD/svg11.dtd">
<!-- Generated by graphviz version 2.43.0 (0)
 -->
<!-- Title: tests.classes.exampleflowelement2.ExampleFlowElement2 Pages: 1 -->
<svg width="203pt" height="162pt"
 viewBox="0.00 0.00 203.00 162.00" xmlns="http://www.w3.org/2000/svg" xmlns:xlink="http://www.w3.org/1999/xlink">
<g id="graph0" class="graph" transform="scale(1 1) rotate(0) translate(4 158)">
<title>tests.classes.exampleflowelement2.ExampleFlowElement2</title>
<!-- Node0 -->
<g id="node1" class="node">
<title>Node0</title>
<g id="a_node1"><a xlink:title=" ">
<polygon fill="#bfbfbf" stroke="black" points="0,-0.5 0,-30.5 195,-30.5 195,-0.5 0,-0.5"/>
<text text-anchor="start" x="8" y="-18.5" font-family="Helvetica,sans-Serif" font-size="10.00">tests.classes.exampleflowelement2.</text>
<text text-anchor="middle" x="97.5" y="-7.5" font-family="Helvetica,sans-Serif" font-size="10.00">ExampleFlowElement2</text>
</a>
</g>
</g>
<!-- Node1 -->
<g id="node2" class="node">
<title>Node1</title>
<g id="a_node2"><a xlink:href="classfiftyone__pipeline__core_1_1flowelement_1_1_flow_element.html" target="_top" xlink:title="A FlowElement is placed inside a Pipeline It receives Evidence via a FlowData object It uses this to ...">
<polygon fill="none" stroke="black" points="2,-67.5 2,-97.5 193,-97.5 193,-67.5 2,-67.5"/>
<text text-anchor="start" x="10" y="-85.5" font-family="Helvetica,sans-Serif" font-size="10.00">fiftyone_pipeline_core.flowelement.</text>
<text text-anchor="middle" x="97.5" y="-74.5" font-family="Helvetica,sans-Serif" font-size="10.00">FlowElement</text>
</a>
</g>
</g>
<!-- Node1&#45;&gt;Node0 -->
<g id="edge1" class="edge">
<title>Node1&#45;&gt;Node0</title>
<path fill="none" stroke="midnightblue" d="M97.5,-57.11C97.5,-48.15 97.5,-38.32 97.5,-30.58"/>
<polygon fill="midnightblue" stroke="midnightblue" points="94,-57.4 97.5,-67.4 101,-57.4 94,-57.4"/>
</g>
<!-- Node2 -->
<g id="node3" class="node">
<title>Node2</title>
<g id="a_node3"><a xlink:title=" ">
<polygon fill="none" stroke="#bfbfbf" points="74,-134.5 74,-153.5 121,-153.5 121,-134.5 74,-134.5"/>
<text text-anchor="middle" x="97.5" y="-141.5" font-family="Helvetica,sans-Serif" font-size="10.00">object</text>
</a>
</g>
</g>
<!-- Node2&#45;&gt;Node1 -->
<g id="edge2" class="edge">
<title>Node2&#45;&gt;Node1</title>
<path fill="none" stroke="midnightblue" d="M97.5,-124.23C97.5,-115.59 97.5,-105.5 97.5,-97.52"/>
<polygon fill="midnightblue" stroke="midnightblue" points="94,-124.48 97.5,-134.48 101,-124.48 94,-124.48"/>
</g>
</g>
</svg>
