<?xml version="1.0" encoding="UTF-8" standalone="no"?>
<!DOCTYPE svg PUBLIC "-//W3C//DTD SVG 1.1//EN"
 "http://www.w3.org/Graphics/SVG/1.1/DTD/svg11.dtd">
<!-- Generated by graphviz version 2.43.0 (0)
 -->
<!-- Title: fiftyone_pipeline_core.evidence_keyfilter.EvidenceKeyFilter Pages: 1 -->
<svg width="683pt" height="149pt"
 viewBox="0.00 0.00 683.00 148.50" xmlns="http://www.w3.org/2000/svg" xmlns:xlink="http://www.w3.org/1999/xlink">
<g id="graph0" class="graph" transform="scale(1 1) rotate(0) translate(4 144.5)">
<title>fiftyone_pipeline_core.evidence_keyfilter.EvidenceKeyFilter</title>
<!-- Node0 -->
<g id="node1" class="node">
<title>Node0</title>
<g id="a_node1"><a xlink:title="An EvidenceKeyFilter is attached to a FlowElement and is used to check if a specific evidence key is ...">
<polygon fill="#bfbfbf" stroke="black" points="0,-49.5 0,-79.5 171,-79.5 171,-49.5 0,-49.5"/>
<text text-anchor="start" x="8" y="-67.5" font-family="Helvetica,sans-Serif" font-size="10.00">fiftyone_pipeline_core.evidence</text>
<text text-anchor="middle" x="85.5" y="-56.5" font-family="Helvetica,sans-Serif" font-size="10.00">_keyfilter.EvidenceKeyFilter</text>
</a>
</g>
</g>
<!-- Node1 -->
<g id="node2" class="node">
<title>Node1</title>
<g id="a_node2"><a xlink:href="classfiftyone__pipeline__core_1_1basiclist__evidence__keyfilter_1_1_basic_list_evidence_key_filter.html" target="_top" xlink:title="An instance of EvidenceKeyFilter that uses a simple array of keys Evidence not using these keys is fi...">
<polygon fill="none" stroke="black" points="215,-99 215,-140 416,-140 416,-99 215,-99"/>
<text text-anchor="start" x="223" y="-128" font-family="Helvetica,sans-Serif" font-size="10.00">fiftyone_pipeline_core.basiclist</text>
<text text-anchor="start" x="223" y="-117" font-family="Helvetica,sans-Serif" font-size="10.00">_evidence_keyfilter.BasicListEvidence</text>
<text text-anchor="middle" x="315.5" y="-106" font-family="Helvetica,sans-Serif" font-size="10.00">KeyFilter</text>
</a>
</g>
</g>
<!-- Node0&#45;&gt;Node1 -->
<g id="edge1" class="edge">
<title>Node0&#45;&gt;Node1</title>
<path fill="none" stroke="midnightblue" d="M158.58,-81.89C181.01,-87.3 205.95,-93.32 229.2,-98.92"/>
<polygon fill="midnightblue" stroke="midnightblue" points="159.34,-78.47 148.8,-79.53 157.7,-85.28 159.34,-78.47"/>
</g>
<!-- Node3 -->
<g id="node4" class="node">
<title>Node3</title>
<g id="a_node4"><a xlink:href="classfiftyone__pipeline__core_1_1javascriptbuilder_1_1_java_script_builder_evidence_key_filter.html" target="_top" xlink:title=" ">
<polygon fill="none" stroke="black" points="210,-49.5 210,-79.5 421,-79.5 421,-49.5 210,-49.5"/>
<text text-anchor="start" x="218" y="-67.5" font-family="Helvetica,sans-Serif" font-size="10.00">fiftyone_pipeline_core.javascriptbuilder.</text>
<text text-anchor="middle" x="315.5" y="-56.5" font-family="Helvetica,sans-Serif" font-size="10.00">JavaScriptBuilderEvidenceKeyFilter</text>
</a>
</g>
</g>
<!-- Node0&#45;&gt;Node3 -->
<g id="edge3" class="edge">
<title>Node0&#45;&gt;Node3</title>
<path fill="none" stroke="midnightblue" d="M181.27,-64.5C190.75,-64.5 200.4,-64.5 209.97,-64.5"/>
<polygon fill="midnightblue" stroke="midnightblue" points="181.07,-61 171.07,-64.5 181.07,-68 181.07,-61"/>
</g>
<!-- Node4 -->
<g id="node5" class="node">
<title>Node4</title>
<g id="a_node5"><a xlink:href="classfiftyone__pipeline__core_1_1sequenceelement_1_1_sequence_element_evidence_key_filter.html" target="_top" xlink:title=" ">
<polygon fill="none" stroke="black" points="207,-0.5 207,-30.5 424,-30.5 424,-0.5 207,-0.5"/>
<text text-anchor="start" x="215" y="-18.5" font-family="Helvetica,sans-Serif" font-size="10.00">fiftyone_pipeline_core.sequenceelement.</text>
<text text-anchor="middle" x="315.5" y="-7.5" font-family="Helvetica,sans-Serif" font-size="10.00">SequenceElementEvidenceKeyFilter</text>
</a>
</g>
</g>
<!-- Node0&#45;&gt;Node4 -->
<g id="edge4" class="edge">
<title>Node0&#45;&gt;Node4</title>
<path fill="none" stroke="midnightblue" d="M166.46,-47.31C191.96,-41.84 219.96,-35.82 244.68,-30.51"/>
<polygon fill="midnightblue" stroke="midnightblue" points="165.5,-43.94 156.46,-49.47 166.97,-50.79 165.5,-43.94"/>
</g>
<!-- Node2 -->
<g id="node3" class="node">
<title>Node2</title>
<g id="a_node3"><a xlink:href="classfiftyone__pipeline__engines__fiftyone_1_1share__usage__evidencekeyfilter_1_1_share_usage_evidence_key_filter.html" target="_top" xlink:title=" ">
<polygon fill="none" stroke="black" points="460,-99 460,-140 675,-140 675,-99 460,-99"/>
<text text-anchor="start" x="468" y="-128" font-family="Helvetica,sans-Serif" font-size="10.00">fiftyone_pipeline_engines</text>
<text text-anchor="start" x="468" y="-117" font-family="Helvetica,sans-Serif" font-size="10.00">_fiftyone.share_usage_evidencekeyfilter.</text>
<text text-anchor="middle" x="567.5" y="-106" font-family="Helvetica,sans-Serif" font-size="10.00">ShareUsageEvidenceKeyFilter</text>
</a>
</g>
</g>
<!-- Node1&#45;&gt;Node2 -->
<g id="edge2" class="edge">
<title>Node1&#45;&gt;Node2</title>
<path fill="none" stroke="midnightblue" d="M426.24,-119.5C437.43,-119.5 448.78,-119.5 459.93,-119.5"/>
<polygon fill="midnightblue" stroke="midnightblue" points="426.02,-116 416.02,-119.5 426.02,-123 426.02,-116"/>
</g>
</g>
</svg>
