<?xml version="1.0" encoding="UTF-8" standalone="no"?>
<!DOCTYPE svg PUBLIC "-//W3C//DTD SVG 1.1//EN"
 "http://www.w3.org/Graphics/SVG/1.1/DTD/svg11.dtd">
<!-- Generated by graphviz version 2.43.0 (0)
 -->
<!-- Title: fiftyone_pipeline_engines_fiftyone.share_usage_tracker.ShareUsageTracker Pages: 1 -->
<svg width="203pt" height="240pt"
 viewBox="0.00 0.00 203.00 240.00" xmlns="http://www.w3.org/2000/svg" xmlns:xlink="http://www.w3.org/1999/xlink">
<g id="graph0" class="graph" transform="scale(1 1) rotate(0) translate(4 236)">
<title>fiftyone_pipeline_engines_fiftyone.share_usage_tracker.ShareUsageTracker</title>
<!-- Node4 -->
<g id="node1" class="node">
<title>Node4</title>
<g id="a_node1"><a xlink:title="The ShareUsageTracker is used by the ShareUsageElement to determine whether to put evidence into a bu...">
<polygon fill="#bfbfbf" stroke="black" points="15.5,-0.5 15.5,-41.5 179.5,-41.5 179.5,-0.5 15.5,-0.5"/>
<text text-anchor="start" x="23.5" y="-29.5" font-family="Helvetica,sans-Serif" font-size="10.00">fiftyone_pipeline_engines</text>
<text text-anchor="start" x="23.5" y="-18.5" font-family="Helvetica,sans-Serif" font-size="10.00">_fiftyone.share_usage_tracker.</text>
<text text-anchor="middle" x="97.5" y="-7.5" font-family="Helvetica,sans-Serif" font-size="10.00">ShareUsageTracker</text>
</a>
</g>
</g>
<!-- Node5 -->
<g id="node2" class="node">
<title>Node5</title>
<g id="a_node2"><a xlink:href="classfiftyone__pipeline__engines_1_1tracker_1_1_tracker.html" target="_top" xlink:title="A tracker is an instance of datakeyed cache which, if a result is found in the cache,...">
<polygon fill="none" stroke="black" points="7.5,-78.5 7.5,-108.5 187.5,-108.5 187.5,-78.5 7.5,-78.5"/>
<text text-anchor="start" x="15.5" y="-96.5" font-family="Helvetica,sans-Serif" font-size="10.00">fiftyone_pipeline_engines.tracker.</text>
<text text-anchor="middle" x="97.5" y="-85.5" font-family="Helvetica,sans-Serif" font-size="10.00">Tracker</text>
</a>
</g>
</g>
<!-- Node5&#45;&gt;Node4 -->
<g id="edge1" class="edge">
<title>Node5&#45;&gt;Node4</title>
<path fill="none" stroke="midnightblue" d="M97.5,-67.98C97.5,-59.35 97.5,-49.76 97.5,-41.59"/>
<polygon fill="midnightblue" stroke="midnightblue" points="94,-68.23 97.5,-78.23 101,-68.23 94,-68.23"/>
</g>
<!-- Node6 -->
<g id="node3" class="node">
<title>Node6</title>
<g id="a_node3"><a xlink:href="classfiftyone__pipeline__engines_1_1datakeyed__cache_1_1_data_keyed_cache.html" target="_top" xlink:title="A data keyed cache is the base class for caches used in the pipeline It does nothing on its own and s...">
<polygon fill="none" stroke="black" points="0,-145.5 0,-175.5 195,-175.5 195,-145.5 0,-145.5"/>
<text text-anchor="start" x="8" y="-163.5" font-family="Helvetica,sans-Serif" font-size="10.00">fiftyone_pipeline_engines.datakeyed</text>
<text text-anchor="middle" x="97.5" y="-152.5" font-family="Helvetica,sans-Serif" font-size="10.00">_cache.DataKeyedCache</text>
</a>
</g>
</g>
<!-- Node6&#45;&gt;Node5 -->
<g id="edge2" class="edge">
<title>Node6&#45;&gt;Node5</title>
<path fill="none" stroke="midnightblue" d="M97.5,-135.11C97.5,-126.15 97.5,-116.32 97.5,-108.58"/>
<polygon fill="midnightblue" stroke="midnightblue" points="94,-135.4 97.5,-145.4 101,-135.4 94,-135.4"/>
</g>
<!-- Node7 -->
<g id="node4" class="node">
<title>Node7</title>
<g id="a_node4"><a xlink:title=" ">
<polygon fill="none" stroke="#bfbfbf" points="74,-212.5 74,-231.5 121,-231.5 121,-212.5 74,-212.5"/>
<text text-anchor="middle" x="97.5" y="-219.5" font-family="Helvetica,sans-Serif" font-size="10.00">object</text>
</a>
</g>
</g>
<!-- Node7&#45;&gt;Node6 -->
<g id="edge3" class="edge">
<title>Node7&#45;&gt;Node6</title>
<path fill="none" stroke="midnightblue" d="M97.5,-202.23C97.5,-193.59 97.5,-183.5 97.5,-175.52"/>
<polygon fill="midnightblue" stroke="midnightblue" points="94,-202.48 97.5,-212.48 101,-202.48 94,-202.48"/>
</g>
</g>
</svg>
