<?xml version="1.0" encoding="UTF-8" standalone="no"?>
<!DOCTYPE svg PUBLIC "-//W3C//DTD SVG 1.1//EN"
 "http://www.w3.org/Graphics/SVG/1.1/DTD/svg11.dtd">
<!-- Generated by graphviz version 2.43.0 (0)
 -->
<!-- Title: fiftyone_pipeline_engines.engine.Engine Pages: 1 -->
<svg width="835pt" height="186pt"
 viewBox="0.00 0.00 835.00 186.00" xmlns="http://www.w3.org/2000/svg" xmlns:xlink="http://www.w3.org/1999/xlink">
<g id="graph0" class="graph" transform="scale(1 1) rotate(0) translate(4 182)">
<title>fiftyone_pipeline_engines.engine.Engine</title>
<!-- Node0 -->
<g id="node1" class="node">
<title>Node0</title>
<g id="a_node1"><a xlink:title="An engine is an extension of the FlowElement class that adds extra functionality.">
<polygon fill="#bfbfbf" stroke="black" points="310,-73.5 310,-103.5 490,-103.5 490,-73.5 310,-73.5"/>
<text text-anchor="start" x="318" y="-91.5" font-family="Helvetica,sans-Serif" font-size="10.00">fiftyone_pipeline_engines.engine.</text>
<text text-anchor="middle" x="400" y="-80.5" font-family="Helvetica,sans-Serif" font-size="10.00">Engine</text>
</a>
</g>
</g>
<!-- Node3 -->
<g id="node4" class="node">
<title>Node3</title>
<g id="a_node4"><a xlink:href="classfiftyone__pipeline__cloudrequestengine_1_1cloudengine_1_1_cloud_engine.html" target="_top" xlink:title="This is a template for all 51Degrees cloud engines.">
<polygon fill="none" stroke="black" points="544.5,-147.5 544.5,-177.5 808.5,-177.5 808.5,-147.5 544.5,-147.5"/>
<text text-anchor="start" x="552.5" y="-165.5" font-family="Helvetica,sans-Serif" font-size="10.00">fiftyone_pipeline_cloudrequestengine.cloudengine.</text>
<text text-anchor="middle" x="676.5" y="-154.5" font-family="Helvetica,sans-Serif" font-size="10.00">CloudEngine</text>
</a>
</g>
</g>
<!-- Node0&#45;&gt;Node3 -->
<g id="edge3" class="edge">
<title>Node0&#45;&gt;Node3</title>
<path fill="none" stroke="midnightblue" d="M442.12,-107.63C466.13,-118.11 497.26,-130.55 526,-138.5 538.29,-141.9 551.29,-144.87 564.28,-147.46"/>
<polygon fill="midnightblue" stroke="midnightblue" points="443.52,-104.42 432.96,-103.57 440.68,-110.82 443.52,-104.42"/>
</g>
<!-- Node4 -->
<g id="node5" class="node">
<title>Node4</title>
<g id="a_node5"><a xlink:href="classfiftyone__pipeline__cloudrequestengine_1_1cloudrequestengine_1_1_cloud_request_engine.html" target="_top" xlink:title=" ">
<polygon fill="none" stroke="black" points="526,-98.5 526,-128.5 827,-128.5 827,-98.5 526,-98.5"/>
<text text-anchor="start" x="534" y="-116.5" font-family="Helvetica,sans-Serif" font-size="10.00">fiftyone_pipeline_cloudrequestengine.cloudrequestengine.</text>
<text text-anchor="middle" x="676.5" y="-105.5" font-family="Helvetica,sans-Serif" font-size="10.00">CloudRequestEngine</text>
</a>
</g>
</g>
<!-- Node0&#45;&gt;Node4 -->
<g id="edge4" class="edge">
<title>Node0&#45;&gt;Node4</title>
<path fill="none" stroke="midnightblue" d="M500.15,-97.53C508.46,-98.29 516.98,-99.06 525.56,-99.84"/>
<polygon fill="midnightblue" stroke="midnightblue" points="500.4,-94.04 490.12,-96.62 499.76,-101.01 500.4,-94.04"/>
</g>
<!-- Node5 -->
<g id="node6" class="node">
<title>Node5</title>
<g id="a_node6"><a xlink:href="classfiftyone__pipeline__engines__fiftyone_1_1share__usage_1_1_share_usage.html" target="_top" xlink:title=" ">
<polygon fill="none" stroke="black" points="584,-49.5 584,-79.5 769,-79.5 769,-49.5 584,-49.5"/>
<text text-anchor="start" x="592" y="-67.5" font-family="Helvetica,sans-Serif" font-size="10.00">fiftyone_pipeline_engines</text>
<text text-anchor="middle" x="676.5" y="-56.5" font-family="Helvetica,sans-Serif" font-size="10.00">_fiftyone.share_usage.ShareUsage</text>
</a>
</g>
</g>
<!-- Node0&#45;&gt;Node5 -->
<g id="edge5" class="edge">
<title>Node0&#45;&gt;Node5</title>
<path fill="none" stroke="midnightblue" d="M500.41,-79.81C527.55,-77.44 556.82,-74.88 583.53,-72.54"/>
<polygon fill="midnightblue" stroke="midnightblue" points="499.78,-76.35 490.12,-80.71 500.39,-83.32 499.78,-76.35"/>
</g>
<!-- Node6 -->
<g id="node7" class="node">
<title>Node6</title>
<g id="a_node7"><a xlink:href="classtests_1_1test__engines_1_1_example_aspect_engine.html" target="_top" xlink:title=" ">
<polygon fill="none" stroke="black" points="600.5,-0.5 600.5,-30.5 752.5,-30.5 752.5,-0.5 600.5,-0.5"/>
<text text-anchor="start" x="608.5" y="-18.5" font-family="Helvetica,sans-Serif" font-size="10.00">tests.test_engines.Example</text>
<text text-anchor="middle" x="676.5" y="-7.5" font-family="Helvetica,sans-Serif" font-size="10.00">AspectEngine</text>
</a>
</g>
</g>
<!-- Node0&#45;&gt;Node6 -->
<g id="edge6" class="edge">
<title>Node0&#45;&gt;Node6</title>
<path fill="none" stroke="midnightblue" d="M443.23,-69.33C467.1,-59.16 497.74,-47.21 526,-39.5 549.84,-33 576.33,-28.03 600.31,-24.35"/>
<polygon fill="midnightblue" stroke="midnightblue" points="441.56,-66.24 433.77,-73.42 444.34,-72.66 441.56,-66.24"/>
</g>
<!-- Node1 -->
<g id="node2" class="node">
<title>Node1</title>
<g id="a_node2"><a xlink:href="classfiftyone__pipeline__core_1_1flowelement_1_1_flow_element.html" target="_top" xlink:title="A FlowElement is placed inside a Pipeline It receives Evidence via a FlowData object It uses this to ...">
<polygon fill="none" stroke="black" points="83,-73.5 83,-103.5 274,-103.5 274,-73.5 83,-73.5"/>
<text text-anchor="start" x="91" y="-91.5" font-family="Helvetica,sans-Serif" font-size="10.00">fiftyone_pipeline_core.flowelement.</text>
<text text-anchor="middle" x="178.5" y="-80.5" font-family="Helvetica,sans-Serif" font-size="10.00">FlowElement</text>
</a>
</g>
</g>
<!-- Node1&#45;&gt;Node0 -->
<g id="edge1" class="edge">
<title>Node1&#45;&gt;Node0</title>
<path fill="none" stroke="midnightblue" d="M284.21,-88.5C292.78,-88.5 301.39,-88.5 309.84,-88.5"/>
<polygon fill="midnightblue" stroke="midnightblue" points="284.18,-85 274.18,-88.5 284.18,-92 284.18,-85"/>
</g>
<!-- Node2 -->
<g id="node3" class="node">
<title>Node2</title>
<g id="a_node3"><a xlink:title=" ">
<polygon fill="none" stroke="#bfbfbf" points="0,-79 0,-98 47,-98 47,-79 0,-79"/>
<text text-anchor="middle" x="23.5" y="-86" font-family="Helvetica,sans-Serif" font-size="10.00">object</text>
</a>
</g>
</g>
<!-- Node2&#45;&gt;Node1 -->
<g id="edge2" class="edge">
<title>Node2&#45;&gt;Node1</title>
<path fill="none" stroke="midnightblue" d="M57.1,-88.5C64.92,-88.5 73.65,-88.5 82.75,-88.5"/>
<polygon fill="midnightblue" stroke="midnightblue" points="57.08,-85 47.08,-88.5 57.08,-92 57.08,-85"/>
</g>
</g>
</svg>
