<?xml version="1.0" encoding="UTF-8" standalone="no"?>
<!DOCTYPE svg PUBLIC "-//W3C//DTD SVG 1.1//EN"
 "http://www.w3.org/Graphics/SVG/1.1/DTD/svg11.dtd">
<!-- Generated by graphviz version 2.43.0 (0)
 -->
<!-- Title: fiftyone_pipeline_engines.missingproperty_service.MissingPropertyService Pages: 1 -->
<svg width="532pt" height="88pt"
 viewBox="0.00 0.00 532.00 88.00" xmlns="http://www.w3.org/2000/svg" xmlns:xlink="http://www.w3.org/1999/xlink">
<g id="graph0" class="graph" transform="scale(1 1) rotate(0) translate(4 84)">
<title>fiftyone_pipeline_engines.missingproperty_service.MissingPropertyService</title>
<!-- Node0 -->
<g id="node1" class="node">
<title>Node0</title>
<g id="a_node1"><a xlink:title="A missing property service runs when a property is not available in the aspectData.">
<polygon fill="#bfbfbf" stroke="black" points="0,-24.5 0,-54.5 224,-54.5 224,-24.5 0,-24.5"/>
<text text-anchor="start" x="8" y="-42.5" font-family="Helvetica,sans-Serif" font-size="10.00">fiftyone_pipeline_engines.missingproperty</text>
<text text-anchor="middle" x="112" y="-31.5" font-family="Helvetica,sans-Serif" font-size="10.00">_service.MissingPropertyService</text>
</a>
</g>
</g>
<!-- Node1 -->
<g id="node2" class="node">
<title>Node1</title>
<g id="a_node2"><a xlink:href="classfiftyone__pipeline__cloudrequestengine_1_1clouddata_1_1_on_premise_missing_property_service.html" target="_top" xlink:title=" ">
<polygon fill="none" stroke="black" points="265.5,-49.5 265.5,-79.5 518.5,-79.5 518.5,-49.5 265.5,-49.5"/>
<text text-anchor="start" x="273.5" y="-67.5" font-family="Helvetica,sans-Serif" font-size="10.00">fiftyone_pipeline_cloudrequestengine.clouddata.</text>
<text text-anchor="middle" x="392" y="-56.5" font-family="Helvetica,sans-Serif" font-size="10.00">OnPremiseMissingPropertyService</text>
</a>
</g>
</g>
<!-- Node0&#45;&gt;Node1 -->
<g id="edge1" class="edge">
<title>Node0&#45;&gt;Node1</title>
<path fill="none" stroke="midnightblue" d="M234.34,-50.41C244.66,-51.34 255.12,-52.28 265.47,-53.21"/>
<polygon fill="midnightblue" stroke="midnightblue" points="234.34,-46.9 224.07,-49.49 233.72,-53.87 234.34,-46.9"/>
</g>
<!-- Node2 -->
<g id="node3" class="node">
<title>Node2</title>
<g id="a_node3"><a xlink:href="classfiftyone__pipeline__cloudrequestengine_1_1cloudengine_1_1_on_premise_missing_property_service.html" target="_top" xlink:title=" ">
<polygon fill="none" stroke="black" points="260,-0.5 260,-30.5 524,-30.5 524,-0.5 260,-0.5"/>
<text text-anchor="start" x="268" y="-18.5" font-family="Helvetica,sans-Serif" font-size="10.00">fiftyone_pipeline_cloudrequestengine.cloudengine.</text>
<text text-anchor="middle" x="392" y="-7.5" font-family="Helvetica,sans-Serif" font-size="10.00">OnPremiseMissingPropertyService</text>
</a>
</g>
</g>
<!-- Node0&#45;&gt;Node2 -->
<g id="edge2" class="edge">
<title>Node0&#45;&gt;Node2</title>
<path fill="none" stroke="midnightblue" d="M234.08,-29.05C242.65,-28.31 251.32,-27.56 259.94,-26.81"/>
<polygon fill="midnightblue" stroke="midnightblue" points="233.73,-25.56 224.07,-29.91 234.34,-32.54 233.73,-25.56"/>
</g>
</g>
</svg>
