<?xml version="1.0" encoding="UTF-8" standalone="no"?>
<!DOCTYPE svg PUBLIC "-//W3C//DTD SVG 1.1//EN"
 "http://www.w3.org/Graphics/SVG/1.1/DTD/svg11.dtd">
<!-- Generated by graphviz version 2.43.0 (0)
 -->
<!-- Title: fiftyone_pipeline_engines_fiftyone.share_usage.ShareUsage Pages: 1 -->
<svg width="199pt" height="229pt"
 viewBox="0.00 0.00 199.00 229.00" xmlns="http://www.w3.org/2000/svg" xmlns:xlink="http://www.w3.org/1999/xlink">
<g id="graph0" class="graph" transform="scale(1 1) rotate(0) translate(4 225)">
<title>fiftyone_pipeline_engines_fiftyone.share_usage.ShareUsage</title>
<!-- Node4 -->
<g id="node1" class="node">
<title>Node4</title>
<g id="a_node1"><a xlink:title=" ">
<polygon fill="#bfbfbf" stroke="black" points="3,-0.5 3,-30.5 188,-30.5 188,-0.5 3,-0.5"/>
<text text-anchor="start" x="11" y="-18.5" font-family="Helvetica,sans-Serif" font-size="10.00">fiftyone_pipeline_engines</text>
<text text-anchor="middle" x="95.5" y="-7.5" font-family="Helvetica,sans-Serif" font-size="10.00">_fiftyone.share_usage.ShareUsage</text>
</a>
</g>
</g>
<!-- Node5 -->
<g id="node2" class="node">
<title>Node5</title>
<g id="a_node2"><a xlink:href="classfiftyone__pipeline__engines_1_1engine_1_1_engine.html" target="_top" xlink:title="An engine is an extension of the FlowElement class that adds extra functionality.">
<polygon fill="none" stroke="black" points="5.5,-67.5 5.5,-97.5 185.5,-97.5 185.5,-67.5 5.5,-67.5"/>
<text text-anchor="start" x="13.5" y="-85.5" font-family="Helvetica,sans-Serif" font-size="10.00">fiftyone_pipeline_engines.engine.</text>
<text text-anchor="middle" x="95.5" y="-74.5" font-family="Helvetica,sans-Serif" font-size="10.00">Engine</text>
</a>
</g>
</g>
<!-- Node5&#45;&gt;Node4 -->
<g id="edge1" class="edge">
<title>Node5&#45;&gt;Node4</title>
<path fill="none" stroke="midnightblue" d="M95.5,-57.11C95.5,-48.15 95.5,-38.32 95.5,-30.58"/>
<polygon fill="midnightblue" stroke="midnightblue" points="92,-57.4 95.5,-67.4 99,-57.4 92,-57.4"/>
</g>
<!-- Node6 -->
<g id="node3" class="node">
<title>Node6</title>
<g id="a_node3"><a xlink:href="classfiftyone__pipeline__core_1_1flowelement_1_1_flow_element.html" target="_top" xlink:title="A FlowElement is placed inside a Pipeline It receives Evidence via a FlowData object It uses this to ...">
<polygon fill="none" stroke="black" points="0,-134.5 0,-164.5 191,-164.5 191,-134.5 0,-134.5"/>
<text text-anchor="start" x="8" y="-152.5" font-family="Helvetica,sans-Serif" font-size="10.00">fiftyone_pipeline_core.flowelement.</text>
<text text-anchor="middle" x="95.5" y="-141.5" font-family="Helvetica,sans-Serif" font-size="10.00">FlowElement</text>
</a>
</g>
</g>
<!-- Node6&#45;&gt;Node5 -->
<g id="edge2" class="edge">
<title>Node6&#45;&gt;Node5</title>
<path fill="none" stroke="midnightblue" d="M95.5,-124.11C95.5,-115.15 95.5,-105.32 95.5,-97.58"/>
<polygon fill="midnightblue" stroke="midnightblue" points="92,-124.4 95.5,-134.4 99,-124.4 92,-124.4"/>
</g>
<!-- Node7 -->
<g id="node4" class="node">
<title>Node7</title>
<g id="a_node4"><a xlink:title=" ">
<polygon fill="none" stroke="#bfbfbf" points="72,-201.5 72,-220.5 119,-220.5 119,-201.5 72,-201.5"/>
<text text-anchor="middle" x="95.5" y="-208.5" font-family="Helvetica,sans-Serif" font-size="10.00">object</text>
</a>
</g>
</g>
<!-- Node7&#45;&gt;Node6 -->
<g id="edge3" class="edge">
<title>Node7&#45;&gt;Node6</title>
<path fill="none" stroke="midnightblue" d="M95.5,-191.23C95.5,-182.59 95.5,-172.5 95.5,-164.52"/>
<polygon fill="midnightblue" stroke="midnightblue" points="92,-191.48 95.5,-201.48 99,-191.48 92,-191.48"/>
</g>
</g>
</svg>
