<?xml version="1.0" encoding="UTF-8" standalone="no"?>
<!DOCTYPE svg PUBLIC "-//W3C//DTD SVG 1.1//EN"
 "http://www.w3.org/Graphics/SVG/1.1/DTD/svg11.dtd">
<!-- Generated by graphviz version 2.43.0 (0)
 -->
<!-- Title: pipeline&#45;python.fiftyone_pipeline_engines.fiftyone_pipeline_engines.lru_cache.LRUEngineCache Pages: 1 -->
<svg width="524pt" height="61pt"
 viewBox="0.00 0.00 524.00 61.00" xmlns="http://www.w3.org/2000/svg" xmlns:xlink="http://www.w3.org/1999/xlink">
<g id="graph0" class="graph" transform="scale(1 1) rotate(0) translate(4 57)">
<title>pipeline&#45;python.fiftyone_pipeline_engines.fiftyone_pipeline_engines.lru_cache.LRUEngineCache</title>
<!-- Node0 -->
<g id="node1" class="node">
<title>Node0</title>
<g id="a_node1"><a xlink:title="An instance of DataKeyed cache using a least recently used (LRU) method.">
<polygon fill="#bfbfbf" stroke="black" points="277,-6 277,-47 516,-47 516,-6 277,-6"/>
<text text-anchor="start" x="285" y="-35" font-family="Helvetica,sans-Serif" font-size="10.00">pipeline&#45;python.fiftyone</text>
<text text-anchor="start" x="285" y="-24" font-family="Helvetica,sans-Serif" font-size="10.00">_pipeline_engines.fiftyone</text>
<text text-anchor="middle" x="396.5" y="-13" font-family="Helvetica,sans-Serif" font-size="10.00">_pipeline_engines.lru_cache.LRUEngineCache</text>
</a>
</g>
</g>
<!-- Node1 -->
<g id="node2" class="node">
<title>Node1</title>
<g id="a_node2"><a xlink:href="classpipeline-python_1_1fiftyone__pipeline__engines_1_1fiftyone__pipeline__engines_1_1datakeyed__cache_1_1_data_keyed_cache.html" target="_top" xlink:title="A data keyed cache is the base class for caches used in the pipeline It does nothing on its own and s...">
<polygon fill="none" stroke="black" points="83,-0.5 83,-52.5 241,-52.5 241,-0.5 83,-0.5"/>
<text text-anchor="start" x="91" y="-40.5" font-family="Helvetica,sans-Serif" font-size="10.00">pipeline&#45;python.fiftyone</text>
<text text-anchor="start" x="91" y="-29.5" font-family="Helvetica,sans-Serif" font-size="10.00">_pipeline_engines.fiftyone</text>
<text text-anchor="start" x="91" y="-18.5" font-family="Helvetica,sans-Serif" font-size="10.00">_pipeline_engines.datakeyed</text>
<text text-anchor="middle" x="162" y="-7.5" font-family="Helvetica,sans-Serif" font-size="10.00">_cache.DataKeyedCache</text>
</a>
</g>
</g>
<!-- Node1&#45;&gt;Node0 -->
<g id="edge1" class="edge">
<title>Node1&#45;&gt;Node0</title>
<path fill="none" stroke="midnightblue" d="M251.15,-26.5C259.5,-26.5 268.07,-26.5 276.65,-26.5"/>
<polygon fill="midnightblue" stroke="midnightblue" points="251.07,-23 241.07,-26.5 251.07,-30 251.07,-23"/>
</g>
<!-- Node2 -->
<g id="node3" class="node">
<title>Node2</title>
<g id="a_node3"><a xlink:title=" ">
<polygon fill="none" stroke="#bfbfbf" points="0,-17 0,-36 47,-36 47,-17 0,-17"/>
<text text-anchor="middle" x="23.5" y="-24" font-family="Helvetica,sans-Serif" font-size="10.00">object</text>
</a>
</g>
</g>
<!-- Node2&#45;&gt;Node1 -->
<g id="edge2" class="edge">
<title>Node2&#45;&gt;Node1</title>
<path fill="none" stroke="midnightblue" d="M57.22,-26.5C65.14,-26.5 73.93,-26.5 82.96,-26.5"/>
<polygon fill="midnightblue" stroke="midnightblue" points="57.04,-23 47.04,-26.5 57.04,-30 57.04,-23"/>
</g>
</g>
</svg>
