<?xml version="1.0" encoding="UTF-8" standalone="no"?>
<!DOCTYPE svg PUBLIC "-//W3C//DTD SVG 1.1//EN"
 "http://www.w3.org/Graphics/SVG/1.1/DTD/svg11.dtd">
<!-- Generated by graphviz version 2.43.0 (0)
 -->
<!-- Title: pipeline&#45;python.fiftyone_pipeline_core.fiftyone_pipeline_core.flowelement.FlowElement Pages: 1 -->
<svg width="573pt" height="920pt"
 viewBox="0.00 0.00 573.00 919.50" xmlns="http://www.w3.org/2000/svg" xmlns:xlink="http://www.w3.org/1999/xlink">
<g id="graph0" class="graph" transform="scale(1 1) rotate(0) translate(4 915.5)">
<title>pipeline&#45;python.fiftyone_pipeline_core.fiftyone_pipeline_core.flowelement.FlowElement</title>
<!-- Node0 -->
<g id="node1" class="node">
<title>Node0</title>
<g id="a_node1"><a xlink:title="A FlowElement is placed inside a Pipeline It receives Evidence via a FlowData object It uses this to ...">
<polygon fill="#bfbfbf" stroke="black" points="83,-419 83,-471 260,-471 260,-419 83,-419"/>
<text text-anchor="start" x="91" y="-459" font-family="Helvetica,sans-Serif" font-size="10.00">pipeline&#45;python.fiftyone</text>
<text text-anchor="start" x="91" y="-448" font-family="Helvetica,sans-Serif" font-size="10.00">_pipeline_core.fiftyone</text>
<text text-anchor="start" x="91" y="-437" font-family="Helvetica,sans-Serif" font-size="10.00">_pipeline_core.flowelement.Flow</text>
<text text-anchor="middle" x="171.5" y="-426" font-family="Helvetica,sans-Serif" font-size="10.00">Element</text>
</a>
</g>
</g>
<!-- Node2 -->
<g id="node3" class="node">
<title>Node2</title>
<g id="a_node3"><a xlink:href="classpipeline-python_1_1fiftyone__pipeline__core_1_1examples_1_1client__side__evidence__custom__9610addf24f90a475458ae8aba3729a0.html" target="_top" xlink:title=" ">
<polygon fill="none" stroke="black" points="303.5,-859 303.5,-911 557.5,-911 557.5,-859 303.5,-859"/>
<text text-anchor="start" x="311.5" y="-899" font-family="Helvetica,sans-Serif" font-size="10.00">pipeline&#45;python.fiftyone</text>
<text text-anchor="start" x="311.5" y="-888" font-family="Helvetica,sans-Serif" font-size="10.00">_pipeline_core.examples.client</text>
<text text-anchor="start" x="311.5" y="-877" font-family="Helvetica,sans-Serif" font-size="10.00">_side_evidence_custom_flow_element.Astrology</text>
<text text-anchor="middle" x="430.5" y="-866" font-family="Helvetica,sans-Serif" font-size="10.00">FlowElement</text>
</a>
</g>
</g>
<!-- Node0&#45;&gt;Node2 -->
<g id="edge2" class="edge">
<title>Node0&#45;&gt;Node2</title>
<path fill="none" stroke="midnightblue" d="M172.47,-481.63C174.46,-560.78 190.72,-748.8 296,-850 299.37,-853.24 303,-856.19 306.83,-858.87"/>
<polygon fill="midnightblue" stroke="midnightblue" points="175.96,-481.13 172.27,-471.2 168.96,-481.26 175.96,-481.13"/>
</g>
<!-- Node3 -->
<g id="node4" class="node">
<title>Node3</title>
<g id="a_node4"><a xlink:href="classpipeline-python_1_1fiftyone__pipeline__core_1_1fiftyone__pipeline__core_1_1javascriptbuilde778a9036818b19ab55d981a40be4a4d7.html" target="_top" xlink:title="The JavaScriptBuilder aggregates JavaScript properties from FlowElements in the Pipeline.">
<polygon fill="none" stroke="black" points="343.5,-788 343.5,-840 517.5,-840 517.5,-788 343.5,-788"/>
<text text-anchor="start" x="351.5" y="-828" font-family="Helvetica,sans-Serif" font-size="10.00">pipeline&#45;python.fiftyone</text>
<text text-anchor="start" x="351.5" y="-817" font-family="Helvetica,sans-Serif" font-size="10.00">_pipeline_core.fiftyone</text>
<text text-anchor="start" x="351.5" y="-806" font-family="Helvetica,sans-Serif" font-size="10.00">_pipeline_core.javascriptbuilder.</text>
<text text-anchor="middle" x="430.5" y="-795" font-family="Helvetica,sans-Serif" font-size="10.00">JavascriptBuilderElement</text>
</a>
</g>
</g>
<!-- Node0&#45;&gt;Node3 -->
<g id="edge3" class="edge">
<title>Node0&#45;&gt;Node3</title>
<path fill="none" stroke="midnightblue" d="M175.23,-481.5C182.38,-550.19 207.75,-698.98 296,-779 309.22,-790.99 326.06,-798.97 343.28,-804.25"/>
<polygon fill="midnightblue" stroke="midnightblue" points="178.68,-480.8 174.23,-471.18 171.71,-481.47 178.68,-480.8"/>
</g>
<!-- Node4 -->
<g id="node5" class="node">
<title>Node4</title>
<g id="a_node5"><a xlink:href="classpipeline-python_1_1fiftyone__pipeline__core_1_1fiftyone__pipeline__core_1_1jsonbundler_1_1_j_s_o_n_bundler_element.html" target="_top" xlink:title="The JSONBundler aggregates all properties from FlowElements into a JSON object It is used for retriev...">
<polygon fill="none" stroke="black" points="325,-717 325,-769 536,-769 536,-717 325,-717"/>
<text text-anchor="start" x="333" y="-757" font-family="Helvetica,sans-Serif" font-size="10.00">pipeline&#45;python.fiftyone</text>
<text text-anchor="start" x="333" y="-746" font-family="Helvetica,sans-Serif" font-size="10.00">_pipeline_core.fiftyone</text>
<text text-anchor="start" x="333" y="-735" font-family="Helvetica,sans-Serif" font-size="10.00">_pipeline_core.jsonbundler.JSONBundler</text>
<text text-anchor="middle" x="430.5" y="-724" font-family="Helvetica,sans-Serif" font-size="10.00">Element</text>
</a>
</g>
</g>
<!-- Node0&#45;&gt;Node4 -->
<g id="edge4" class="edge">
<title>Node0&#45;&gt;Node4</title>
<path fill="none" stroke="midnightblue" d="M179.28,-481.14C191.89,-538.12 224.46,-648.46 296,-708 304.56,-715.13 314.42,-720.82 324.82,-725.36"/>
<polygon fill="midnightblue" stroke="midnightblue" points="182.65,-480.2 177.15,-471.15 175.81,-481.66 182.65,-480.2"/>
</g>
<!-- Node5 -->
<g id="node6" class="node">
<title>Node5</title>
<g id="a_node6"><a xlink:href="classpipeline-python_1_1fiftyone__pipeline__core_1_1fiftyone__pipeline__core_1_1sequenceelement_1_1_sequence_element.html" target="_top" xlink:title="The SequenceElement stores session data regarding requests for client side JavaScript from the JavaSc...">
<polygon fill="none" stroke="black" points="340.5,-646 340.5,-698 520.5,-698 520.5,-646 340.5,-646"/>
<text text-anchor="start" x="348.5" y="-686" font-family="Helvetica,sans-Serif" font-size="10.00">pipeline&#45;python.fiftyone</text>
<text text-anchor="start" x="348.5" y="-675" font-family="Helvetica,sans-Serif" font-size="10.00">_pipeline_core.fiftyone</text>
<text text-anchor="start" x="348.5" y="-664" font-family="Helvetica,sans-Serif" font-size="10.00">_pipeline_core.sequenceelement.</text>
<text text-anchor="middle" x="430.5" y="-653" font-family="Helvetica,sans-Serif" font-size="10.00">SequenceElement</text>
</a>
</g>
</g>
<!-- Node0&#45;&gt;Node5 -->
<g id="edge5" class="edge">
<title>Node0&#45;&gt;Node5</title>
<path fill="none" stroke="midnightblue" d="M185.85,-480.52C204.05,-524.06 240.83,-596.96 296,-637 309.09,-646.5 324.56,-653.42 340.24,-658.47"/>
<polygon fill="midnightblue" stroke="midnightblue" points="189.05,-479.11 182.04,-471.18 182.57,-481.76 189.05,-479.11"/>
</g>
<!-- Node6 -->
<g id="node7" class="node">
<title>Node6</title>
<g id="a_node7"><a xlink:href="classpipeline-python_1_1fiftyone__pipeline__core_1_1fiftyone__pipeline__core_1_1setheaderelement_1_1_set_header_element.html" target="_top" xlink:title="Set response headers element class.">
<polygon fill="none" stroke="black" points="339.5,-575 339.5,-627 521.5,-627 521.5,-575 339.5,-575"/>
<text text-anchor="start" x="347.5" y="-615" font-family="Helvetica,sans-Serif" font-size="10.00">pipeline&#45;python.fiftyone</text>
<text text-anchor="start" x="347.5" y="-604" font-family="Helvetica,sans-Serif" font-size="10.00">_pipeline_core.fiftyone</text>
<text text-anchor="start" x="347.5" y="-593" font-family="Helvetica,sans-Serif" font-size="10.00">_pipeline_core.setheaderelement.</text>
<text text-anchor="middle" x="430.5" y="-582" font-family="Helvetica,sans-Serif" font-size="10.00">SetHeaderElement</text>
</a>
</g>
</g>
<!-- Node0&#45;&gt;Node6 -->
<g id="edge6" class="edge">
<title>Node0&#45;&gt;Node6</title>
<path fill="none" stroke="midnightblue" d="M198.99,-478.93C221.89,-506.03 257.33,-543 296,-565 309.35,-572.6 324.37,-578.64 339.39,-583.44"/>
<polygon fill="midnightblue" stroke="midnightblue" points="201.66,-476.67 192.58,-471.21 196.28,-481.14 201.66,-476.67"/>
</g>
<!-- Node7 -->
<g id="node8" class="node">
<title>Node7</title>
<g id="a_node8"><a xlink:href="classpipeline-python_1_1fiftyone__pipeline__core_1_1tests_1_1classes_1_1apvflowelement_1_1_a_p_v_flow_element.html" target="_top" xlink:title=" ">
<polygon fill="none" stroke="black" points="311.5,-514.5 311.5,-555.5 549.5,-555.5 549.5,-514.5 311.5,-514.5"/>
<text text-anchor="start" x="319.5" y="-543.5" font-family="Helvetica,sans-Serif" font-size="10.00">pipeline&#45;python.fiftyone</text>
<text text-anchor="start" x="319.5" y="-532.5" font-family="Helvetica,sans-Serif" font-size="10.00">_pipeline_core.tests.classes.apvflowelement.</text>
<text text-anchor="middle" x="430.5" y="-521.5" font-family="Helvetica,sans-Serif" font-size="10.00">APVFlowElement</text>
</a>
</g>
</g>
<!-- Node0&#45;&gt;Node7 -->
<g id="edge7" class="edge">
<title>Node0&#45;&gt;Node7</title>
<path fill="none" stroke="midnightblue" d="M228.48,-475.59C249.24,-486.02 273.27,-497.04 296,-505 305.87,-508.45 316.28,-511.6 326.77,-514.46"/>
<polygon fill="midnightblue" stroke="midnightblue" points="229.99,-472.43 219.49,-471.01 226.81,-478.67 229.99,-472.43"/>
</g>
<!-- Node8 -->
<g id="node9" class="node">
<title>Node8</title>
<g id="a_node9"><a xlink:href="classpipeline-python_1_1fiftyone__pipeline__core_1_1tests_1_1classes_1_1errorflowdata_1_1_error_flow_data.html" target="_top" xlink:title=" ">
<polygon fill="none" stroke="black" points="318.5,-454.5 318.5,-495.5 542.5,-495.5 542.5,-454.5 318.5,-454.5"/>
<text text-anchor="start" x="326.5" y="-483.5" font-family="Helvetica,sans-Serif" font-size="10.00">pipeline&#45;python.fiftyone</text>
<text text-anchor="start" x="326.5" y="-472.5" font-family="Helvetica,sans-Serif" font-size="10.00">_pipeline_core.tests.classes.errorflowdata.</text>
<text text-anchor="middle" x="430.5" y="-461.5" font-family="Helvetica,sans-Serif" font-size="10.00">ErrorFlowData</text>
</a>
</g>
</g>
<!-- Node0&#45;&gt;Node8 -->
<g id="edge8" class="edge">
<title>Node0&#45;&gt;Node8</title>
<path fill="none" stroke="midnightblue" d="M270.37,-456.42C285.97,-458.25 302.2,-460.14 318.08,-461.99"/>
<polygon fill="midnightblue" stroke="midnightblue" points="270.56,-452.92 260.23,-455.24 269.75,-459.88 270.56,-452.92"/>
</g>
<!-- Node9 -->
<g id="node10" class="node">
<title>Node9</title>
<g id="a_node10"><a xlink:href="classpipeline-python_1_1fiftyone__pipeline__core_1_1tests_1_1classes_1_1exampleflowelement1_1_1_example_flow_element1.html" target="_top" xlink:title=" ">
<polygon fill="none" stroke="black" points="296,-394.5 296,-435.5 565,-435.5 565,-394.5 296,-394.5"/>
<text text-anchor="start" x="304" y="-423.5" font-family="Helvetica,sans-Serif" font-size="10.00">pipeline&#45;python.fiftyone</text>
<text text-anchor="start" x="304" y="-412.5" font-family="Helvetica,sans-Serif" font-size="10.00">_pipeline_core.tests.classes.exampleflowelement1.</text>
<text text-anchor="middle" x="430.5" y="-401.5" font-family="Helvetica,sans-Serif" font-size="10.00">ExampleFlowElement1</text>
</a>
</g>
</g>
<!-- Node0&#45;&gt;Node9 -->
<g id="edge9" class="edge">
<title>Node0&#45;&gt;Node9</title>
<path fill="none" stroke="midnightblue" d="M270.3,-433.58C278.64,-432.61 287.16,-431.62 295.72,-430.62"/>
<polygon fill="midnightblue" stroke="midnightblue" points="269.75,-430.12 260.23,-434.76 270.56,-437.08 269.75,-430.12"/>
</g>
<!-- Node10 -->
<g id="node11" class="node">
<title>Node10</title>
<g id="a_node11"><a xlink:href="classpipeline-python_1_1fiftyone__pipeline__core_1_1tests_1_1classes_1_1exampleflowelement2_1_1_example_flow_element2.html" target="_top" xlink:title=" ">
<polygon fill="none" stroke="black" points="296,-334.5 296,-375.5 565,-375.5 565,-334.5 296,-334.5"/>
<text text-anchor="start" x="304" y="-363.5" font-family="Helvetica,sans-Serif" font-size="10.00">pipeline&#45;python.fiftyone</text>
<text text-anchor="start" x="304" y="-352.5" font-family="Helvetica,sans-Serif" font-size="10.00">_pipeline_core.tests.classes.exampleflowelement2.</text>
<text text-anchor="middle" x="430.5" y="-341.5" font-family="Helvetica,sans-Serif" font-size="10.00">ExampleFlowElement2</text>
</a>
</g>
</g>
<!-- Node0&#45;&gt;Node10 -->
<g id="edge10" class="edge">
<title>Node0&#45;&gt;Node10</title>
<path fill="none" stroke="midnightblue" d="M228.48,-414.41C249.24,-403.98 273.27,-392.96 296,-385 305.87,-381.55 316.28,-378.4 326.77,-375.54"/>
<polygon fill="midnightblue" stroke="midnightblue" points="226.81,-411.33 219.49,-418.99 229.99,-417.57 226.81,-411.33"/>
</g>
<!-- Node11 -->
<g id="node12" class="node">
<title>Node11</title>
<g id="a_node12"><a xlink:href="classpipeline-python_1_1fiftyone__pipeline__core_1_1tests_1_1classes_1_1stopflowdata_1_1_stop_flow_data.html" target="_top" xlink:title=" ">
<polygon fill="none" stroke="black" points="319.5,-274.5 319.5,-315.5 541.5,-315.5 541.5,-274.5 319.5,-274.5"/>
<text text-anchor="start" x="327.5" y="-303.5" font-family="Helvetica,sans-Serif" font-size="10.00">pipeline&#45;python.fiftyone</text>
<text text-anchor="start" x="327.5" y="-292.5" font-family="Helvetica,sans-Serif" font-size="10.00">_pipeline_core.tests.classes.stopflowdata.</text>
<text text-anchor="middle" x="430.5" y="-281.5" font-family="Helvetica,sans-Serif" font-size="10.00">StopFlowData</text>
</a>
</g>
</g>
<!-- Node0&#45;&gt;Node11 -->
<g id="edge11" class="edge">
<title>Node0&#45;&gt;Node11</title>
<path fill="none" stroke="midnightblue" d="M198.33,-411.14C221.07,-383.73 256.63,-346.3 296,-325 303.42,-320.99 311.34,-317.51 319.5,-314.5"/>
<polygon fill="midnightblue" stroke="midnightblue" points="195.58,-408.97 191.98,-418.94 201.01,-413.4 195.58,-408.97"/>
</g>
<!-- Node12 -->
<g id="node13" class="node">
<title>Node12</title>
<g id="a_node13"><a xlink:href="classpipeline-python_1_1fiftyone__pipeline__core_1_1tests_1_1test__javascriptbuilder_1_1_delayed_execution_engine1.html" target="_top" xlink:title=" ">
<polygon fill="none" stroke="black" points="333.5,-203 333.5,-255 527.5,-255 527.5,-203 333.5,-203"/>
<text text-anchor="start" x="341.5" y="-243" font-family="Helvetica,sans-Serif" font-size="10.00">pipeline&#45;python.fiftyone</text>
<text text-anchor="start" x="341.5" y="-232" font-family="Helvetica,sans-Serif" font-size="10.00">_pipeline_core.tests.test</text>
<text text-anchor="start" x="341.5" y="-221" font-family="Helvetica,sans-Serif" font-size="10.00">_javascriptbuilder.DelayedExecution</text>
<text text-anchor="middle" x="430.5" y="-210" font-family="Helvetica,sans-Serif" font-size="10.00">Engine1</text>
</a>
</g>
</g>
<!-- Node0&#45;&gt;Node12 -->
<g id="edge12" class="edge">
<title>Node0&#45;&gt;Node12</title>
<path fill="none" stroke="midnightblue" d="M187.5,-409.56C206.68,-368.58 243.75,-302.02 296,-265 307.26,-257.02 320.2,-250.81 333.49,-245.97"/>
<polygon fill="midnightblue" stroke="midnightblue" points="184.21,-408.34 183.24,-418.9 190.58,-411.25 184.21,-408.34"/>
</g>
<!-- Node13 -->
<g id="node14" class="node">
<title>Node13</title>
<g id="a_node14"><a xlink:href="classpipeline-python_1_1fiftyone__pipeline__core_1_1tests_1_1test__javascriptbuilder_1_1_delayed_execution_engine2.html" target="_top" xlink:title=" ">
<polygon fill="none" stroke="black" points="333.5,-132 333.5,-184 527.5,-184 527.5,-132 333.5,-132"/>
<text text-anchor="start" x="341.5" y="-172" font-family="Helvetica,sans-Serif" font-size="10.00">pipeline&#45;python.fiftyone</text>
<text text-anchor="start" x="341.5" y="-161" font-family="Helvetica,sans-Serif" font-size="10.00">_pipeline_core.tests.test</text>
<text text-anchor="start" x="341.5" y="-150" font-family="Helvetica,sans-Serif" font-size="10.00">_javascriptbuilder.DelayedExecution</text>
<text text-anchor="middle" x="430.5" y="-139" font-family="Helvetica,sans-Serif" font-size="10.00">Engine2</text>
</a>
</g>
</g>
<!-- Node0&#45;&gt;Node13 -->
<g id="edge13" class="edge">
<title>Node0&#45;&gt;Node13</title>
<path fill="none" stroke="midnightblue" d="M180.13,-408.74C193.64,-353.66 227.1,-249.38 296,-193 306.94,-184.05 319.93,-177.36 333.44,-172.38"/>
<polygon fill="midnightblue" stroke="midnightblue" points="176.66,-408.21 177.76,-418.75 183.47,-409.82 176.66,-408.21"/>
</g>
<!-- Node14 -->
<g id="node15" class="node">
<title>Node14</title>
<g id="a_node15"><a xlink:href="classpipeline-python_1_1fiftyone__pipeline__core_1_1tests_1_1test__javascriptbuilder_1_1_delayed_execution_engine3.html" target="_top" xlink:title=" ">
<polygon fill="none" stroke="black" points="333.5,-61 333.5,-113 527.5,-113 527.5,-61 333.5,-61"/>
<text text-anchor="start" x="341.5" y="-101" font-family="Helvetica,sans-Serif" font-size="10.00">pipeline&#45;python.fiftyone</text>
<text text-anchor="start" x="341.5" y="-90" font-family="Helvetica,sans-Serif" font-size="10.00">_pipeline_core.tests.test</text>
<text text-anchor="start" x="341.5" y="-79" font-family="Helvetica,sans-Serif" font-size="10.00">_javascriptbuilder.DelayedExecution</text>
<text text-anchor="middle" x="430.5" y="-68" font-family="Helvetica,sans-Serif" font-size="10.00">Engine3</text>
</a>
</g>
</g>
<!-- Node0&#45;&gt;Node14 -->
<g id="edge14" class="edge">
<title>Node0&#45;&gt;Node14</title>
<path fill="none" stroke="midnightblue" d="M175.74,-408.69C183.69,-341.78 210.3,-198.85 296,-122 306.7,-112.4 319.72,-105.38 333.38,-100.26"/>
<polygon fill="midnightblue" stroke="midnightblue" points="172.25,-408.43 174.62,-418.76 179.2,-409.2 172.25,-408.43"/>
</g>
<!-- Node15 -->
<g id="node16" class="node">
<title>Node15</title>
<g id="a_node16"><a xlink:href="classpipeline-python_1_1fiftyone__pipeline__core_1_1tests_1_1test__javascriptbuilder_1_1_test_engine.html" target="_top" xlink:title=" ">
<polygon fill="none" stroke="black" points="351.5,-0.5 351.5,-41.5 509.5,-41.5 509.5,-0.5 351.5,-0.5"/>
<text text-anchor="start" x="359.5" y="-29.5" font-family="Helvetica,sans-Serif" font-size="10.00">pipeline&#45;python.fiftyone</text>
<text text-anchor="start" x="359.5" y="-18.5" font-family="Helvetica,sans-Serif" font-size="10.00">_pipeline_core.tests.test</text>
<text text-anchor="middle" x="430.5" y="-7.5" font-family="Helvetica,sans-Serif" font-size="10.00">_javascriptbuilder.TestEngine</text>
</a>
</g>
</g>
<!-- Node0&#45;&gt;Node15 -->
<g id="edge15" class="edge">
<title>Node0&#45;&gt;Node15</title>
<path fill="none" stroke="midnightblue" d="M172.56,-408.51C174.77,-330.58 191.48,-147.22 296,-51 311.12,-37.08 331.26,-29.15 351.31,-24.74"/>
<polygon fill="midnightblue" stroke="midnightblue" points="169.05,-408.71 172.33,-418.78 176.05,-408.86 169.05,-408.71"/>
</g>
<!-- Node1 -->
<g id="node2" class="node">
<title>Node1</title>
<g id="a_node2"><a xlink:title=" ">
<polygon fill="none" stroke="#bfbfbf" points="0,-435.5 0,-454.5 47,-454.5 47,-435.5 0,-435.5"/>
<text text-anchor="middle" x="23.5" y="-442.5" font-family="Helvetica,sans-Serif" font-size="10.00">object</text>
</a>
</g>
</g>
<!-- Node1&#45;&gt;Node0 -->
<g id="edge1" class="edge">
<title>Node1&#45;&gt;Node0</title>
<path fill="none" stroke="midnightblue" d="M57.37,-445C65.2,-445 73.91,-445 82.94,-445"/>
<polygon fill="midnightblue" stroke="midnightblue" points="57.31,-441.5 47.31,-445 57.31,-448.5 57.31,-441.5"/>
</g>
</g>
</svg>
