<?xml version="1.0" encoding="UTF-8" standalone="no"?>
<!DOCTYPE svg PUBLIC "-//W3C//DTD SVG 1.1//EN"
 "http://www.w3.org/Graphics/SVG/1.1/DTD/svg11.dtd">
<!-- Generated by graphviz version 2.43.0 (0)
 -->
<!-- Title: fiftyone_pipeline_core.basiclist_evidence_keyfilter.BasicListEvidenceKeyFilter Pages: 1 -->
<svg width="667pt" height="50pt"
 viewBox="0.00 0.00 667.00 50.00" xmlns="http://www.w3.org/2000/svg" xmlns:xlink="http://www.w3.org/1999/xlink">
<g id="graph0" class="graph" transform="scale(1 1) rotate(0) translate(4 46)">
<title>fiftyone_pipeline_core.basiclist_evidence_keyfilter.BasicListEvidenceKeyFilter</title>
<!-- Node0 -->
<g id="node1" class="node">
<title>Node0</title>
<g id="a_node1"><a xlink:title="An instance of EvidenceKeyFilter that uses a simple array of keys Evidence not using these keys is fi...">
<polygon fill="#bfbfbf" stroke="black" points="207,-0.5 207,-41.5 408,-41.5 408,-0.5 207,-0.5"/>
<text text-anchor="start" x="215" y="-29.5" font-family="Helvetica,sans-Serif" font-size="10.00">fiftyone_pipeline_core.basiclist</text>
<text text-anchor="start" x="215" y="-18.5" font-family="Helvetica,sans-Serif" font-size="10.00">_evidence_keyfilter.BasicListEvidence</text>
<text text-anchor="middle" x="307.5" y="-7.5" font-family="Helvetica,sans-Serif" font-size="10.00">KeyFilter</text>
</a>
</g>
</g>
<!-- Node2 -->
<g id="node3" class="node">
<title>Node2</title>
<g id="a_node3"><a xlink:href="classfiftyone__pipeline__engines__fiftyone_1_1share__usage__evidencekeyfilter_1_1_share_usage_evidence_key_filter.html" target="_top" xlink:title=" ">
<polygon fill="none" stroke="black" points="444,-0.5 444,-41.5 659,-41.5 659,-0.5 444,-0.5"/>
<text text-anchor="start" x="452" y="-29.5" font-family="Helvetica,sans-Serif" font-size="10.00">fiftyone_pipeline_engines</text>
<text text-anchor="start" x="452" y="-18.5" font-family="Helvetica,sans-Serif" font-size="10.00">_fiftyone.share_usage_evidencekeyfilter.</text>
<text text-anchor="middle" x="551.5" y="-7.5" font-family="Helvetica,sans-Serif" font-size="10.00">ShareUsageEvidenceKeyFilter</text>
</a>
</g>
</g>
<!-- Node0&#45;&gt;Node2 -->
<g id="edge2" class="edge">
<title>Node0&#45;&gt;Node2</title>
<path fill="none" stroke="midnightblue" d="M418.55,-21C426.96,-21 435.45,-21 443.84,-21"/>
<polygon fill="midnightblue" stroke="midnightblue" points="418.33,-17.5 408.33,-21 418.33,-24.5 418.33,-17.5"/>
</g>
<!-- Node1 -->
<g id="node2" class="node">
<title>Node1</title>
<g id="a_node2"><a xlink:href="classfiftyone__pipeline__core_1_1evidence__keyfilter_1_1_evidence_key_filter.html" target="_top" xlink:title="An EvidenceKeyFilter is attached to a FlowElement and is used to check if a specific evidence key is ...">
<polygon fill="none" stroke="black" points="0,-6 0,-36 171,-36 171,-6 0,-6"/>
<text text-anchor="start" x="8" y="-24" font-family="Helvetica,sans-Serif" font-size="10.00">fiftyone_pipeline_core.evidence</text>
<text text-anchor="middle" x="85.5" y="-13" font-family="Helvetica,sans-Serif" font-size="10.00">_keyfilter.EvidenceKeyFilter</text>
</a>
</g>
</g>
<!-- Node1&#45;&gt;Node0 -->
<g id="edge1" class="edge">
<title>Node1&#45;&gt;Node0</title>
<path fill="none" stroke="midnightblue" d="M181.41,-21C189.8,-21 198.31,-21 206.74,-21"/>
<polygon fill="midnightblue" stroke="midnightblue" points="181.24,-17.5 171.24,-21 181.24,-24.5 181.24,-17.5"/>
</g>
</g>
</svg>
